<svg width="38" height="38" viewBox="0 0 38 38" fill="none" xmlns="http://www.w3.org/2000/svg">
<path d="M13.8838 22.9113C13.8741 22.8638 13.86 22.8171 13.8415 22.7726C13.8229 22.7273 13.7999 22.6842 13.7732 22.6442C13.7457 22.6033 13.7146 22.5655 13.6804 22.5313C13.5082 22.3592 13.2522 22.2797 13.011 22.3287C12.9635 22.3384 12.9167 22.3525 12.8722 22.371C12.8269 22.3896 12.7839 22.4126 12.7438 22.4393C12.703 22.466 12.6651 22.4972 12.631 22.5313C12.5968 22.5655 12.5657 22.6033 12.5389 22.6442C12.5122 22.6842 12.4892 22.7273 12.4707 22.7726C12.4521 22.8171 12.438 22.8638 12.4284 22.9113C12.4187 22.9588 12.4135 23.0078 12.4135 23.0561C12.4135 23.1043 12.4187 23.1533 12.4284 23.2015C12.438 23.2483 12.4521 23.2951 12.4707 23.3403C12.4892 23.3849 12.5122 23.4279 12.5389 23.468C12.5657 23.5088 12.5968 23.5467 12.631 23.5808C12.6651 23.6149 12.703 23.6461 12.7438 23.6736C12.7839 23.7003 12.8269 23.7233 12.8722 23.7418C12.9167 23.7604 12.9635 23.7745 13.011 23.7842C13.0585 23.7938 13.1075 23.7983 13.1557 23.7983C13.3509 23.7983 13.5424 23.7188 13.6804 23.5808C13.7146 23.5467 13.7457 23.5088 13.7732 23.468C13.7999 23.4279 13.8229 23.3849 13.8415 23.3403C13.86 23.2951 13.8741 23.2483 13.8838 23.2015C13.8934 23.1533 13.8979 23.1043 13.8979 23.0561C13.8979 23.0078 13.8934 22.9588 13.8838 22.9113Z" fill="#E9EBFB"/>
<path d="M37.2578 35.7276H35.7204V27.7903V24.5355C35.7204 23.3105 34.7238 22.3139 33.4988 22.3139H32.2313V17.8235V14.9929C32.2313 13.7679 31.2347 12.7713 30.0097 12.7713H27.7313V10.6164C28.2405 10.4878 28.7224 10.2253 29.1199 9.82781C30.0337 8.91418 30.2633 7.52191 29.6914 6.36313L27.6546 2.23694C27.5296 1.98363 27.2716 1.82325 26.9891 1.82325C26.7067 1.82325 26.4487 1.98363 26.3236 2.23694L24.2869 6.36321C23.715 7.52184 23.9446 8.91418 24.8583 9.82789C25.2558 10.2254 25.7378 10.4879 26.2469 10.6165V12.7713H19.7422V9.58081C20.2513 9.45227 20.7333 9.18975 21.1308 8.79224C22.0445 7.87861 22.2741 6.48634 21.7022 5.32756L19.6655 1.20129C19.5405 0.947984 19.2825 0.787598 19 0.787598C18.7175 0.787598 18.4595 0.947984 18.3345 1.20129L16.2978 5.32763C15.7259 6.48634 15.9555 7.87861 16.8692 8.79224C17.2667 9.18975 17.7487 9.45227 18.2578 9.58081V12.7713H11.7531V10.6188C12.2741 10.4874 12.7519 10.2177 13.1417 9.82789C14.0554 8.91425 14.285 7.52191 13.7131 6.36321L11.6764 2.23694C11.5513 1.98363 11.2933 1.82325 11.0109 1.82325C10.7284 1.82325 10.4704 1.98363 10.3454 2.23694L8.30864 6.36328C7.73678 7.52191 7.96642 8.91425 8.88005 9.82796C9.26985 10.2178 9.74767 10.4875 10.2687 10.6188V12.7714H7.99032C6.76526 12.7714 5.76865 13.768 5.76865 14.9931V17.8238V22.314H4.50122C3.27616 22.314 2.27955 23.3106 2.27955 24.5357V27.7905V35.7278H0.742188C0.332277 35.7278 0 36.0601 0 36.47C0 36.8799 0.332277 37.2122 0.742188 37.2122H3.02174H34.9783H37.2578C37.6677 37.2122 38 36.8799 38 36.47C38 36.0601 37.6677 35.7276 37.2578 35.7276ZM25.9079 8.77814C25.4443 8.31457 25.3278 7.60808 25.618 7.02012L26.9892 4.24218L28.3604 7.02012C28.6506 7.60808 28.5341 8.31457 28.0705 8.77814C27.9676 8.88108 27.8529 8.96502 27.7315 9.03241C27.2712 9.28787 26.7073 9.28787 26.2471 9.03241C26.1255 8.96509 26.0109 8.88115 25.9079 8.77814ZM17.9188 7.74256C17.4552 7.27899 17.3387 6.5725 17.6289 5.98454L19 3.20668L20.3712 5.98462C20.6614 6.57258 20.5449 7.27907 20.0813 7.74264C19.9784 7.84558 19.8637 7.92952 19.7423 7.99691C19.2821 8.25237 18.7181 8.25237 18.2579 7.99691C18.1364 7.92945 18.0217 7.84558 17.9188 7.74256ZM9.92965 8.77814C9.46601 8.31457 9.34956 7.60808 9.63975 7.02012L11.0109 4.24218L12.3821 7.02012C12.6723 7.608 12.5558 8.31449 12.0922 8.77814C11.9893 8.88108 11.8746 8.96502 11.7532 9.03241C11.2931 9.28787 10.7291 9.28787 10.2688 9.03241C10.1473 8.96509 10.0326 8.88115 9.92965 8.77814ZM7.99032 14.2556H30.0098C30.4163 14.2556 30.747 14.5863 30.747 14.9929V17.3231C30.42 17.4258 30.0677 17.4731 29.6519 17.4731C28.545 17.4731 28.0399 17.1364 27.4004 16.71C26.6886 16.2355 25.8819 15.6977 24.3256 15.6977C22.7693 15.6977 21.9626 16.2355 21.2508 16.71C20.6114 17.1364 20.1063 17.4731 18.9995 17.4731C17.8927 17.4731 17.3876 17.1364 16.7482 16.71C16.0364 16.2356 15.2298 15.6977 13.6735 15.6977C12.1174 15.6977 11.3107 16.2356 10.599 16.71C9.95956 17.1364 9.4545 17.4731 8.34783 17.4731C7.9322 17.4731 7.58004 17.4257 7.2531 17.3232V14.9929H7.25303C7.25303 14.5863 7.58382 14.2556 7.99032 14.2556ZM34.2361 35.7276H3.76393V28.5945C4.39494 28.7106 4.79691 28.9781 5.27302 29.2955C5.98478 29.7701 6.79146 30.3079 8.34775 30.3079C9.9039 30.3079 10.7106 29.77 11.4223 29.2955C12.0617 28.8692 12.5668 28.5325 13.6735 28.5325C14.7802 28.5325 15.2854 28.8692 15.9247 29.2955C16.6365 29.7701 17.4432 30.3079 18.9994 30.3079C20.5557 30.3079 21.3624 29.77 22.0741 29.2955C22.7136 28.8692 23.2187 28.5325 24.3255 28.5325C25.4324 28.5325 25.9375 28.8692 26.577 29.2955C27.2888 29.77 28.0955 30.3079 29.6519 30.3079C31.2082 30.3079 32.0149 29.77 32.7268 29.2955C33.2029 28.9781 33.605 28.7105 34.2361 28.5945V35.7276ZM34.2361 27.093C33.1463 27.2318 32.4923 27.6678 31.9034 28.0604C31.2639 28.4867 30.7588 28.8234 29.6519 28.8234C28.545 28.8234 28.0399 28.4867 27.4004 28.0604C26.6885 27.5859 25.8818 27.048 24.3255 27.048C22.7693 27.048 21.9625 27.5859 21.2508 28.0604C20.6113 28.4867 20.1062 28.8234 18.9994 28.8234C17.8926 28.8234 17.3875 28.4867 16.7481 28.0604C16.0364 27.5858 15.2297 27.048 13.6734 27.048C12.1173 27.048 11.3106 27.5859 10.5988 28.0604C9.95941 28.4867 9.45436 28.8234 8.34768 28.8234C7.24086 28.8234 6.7358 28.4867 6.0964 28.0604C5.50748 27.6678 4.85361 27.2318 3.76393 27.093V24.5354C3.76393 24.1289 4.09472 23.7982 4.50122 23.7982H10.1971C10.607 23.7982 10.9393 23.4659 10.9393 23.056C10.9393 22.6461 10.607 22.3138 10.1971 22.3138H7.25303V18.8529C7.59458 18.9227 7.95543 18.9575 8.34775 18.9575C9.9039 18.9575 10.7106 18.4197 11.4223 17.9452C12.0617 17.5189 12.5668 17.1821 13.6735 17.1821C14.7803 17.1821 15.2854 17.5189 15.9247 17.9452C16.6365 18.4197 17.4432 18.9575 18.9994 18.9575C20.5556 18.9575 21.3624 18.4197 22.0741 17.9452C22.7136 17.5189 23.2187 17.1821 24.3255 17.1821C25.4324 17.1821 25.9375 17.5189 26.577 17.9452C27.2888 18.4197 28.0956 18.9575 29.6519 18.9575C30.0443 18.9575 30.4053 18.9227 30.747 18.8528V22.3139H16.115C15.7051 22.3139 15.3729 22.6461 15.3729 23.056C15.3729 23.466 15.7051 23.7982 16.115 23.7982H33.4988C33.9053 23.7982 34.2361 24.129 34.2361 24.5355V27.093Z" fill="#E9EBFB"/>
<path d="M7.23818 33.8837C7.22853 33.8362 7.21443 33.7895 7.19587 33.7449C7.17732 33.7004 7.15431 33.6574 7.12759 33.6165C7.10013 33.5765 7.0697 33.5386 7.03482 33.5037C7.00068 33.4696 6.96283 33.4391 6.92201 33.4117C6.88193 33.385 6.83888 33.362 6.79435 33.3434C6.74982 33.3249 6.70306 33.3107 6.65556 33.3011C6.41435 33.2529 6.15829 33.3315 5.98536 33.5037C5.95122 33.5386 5.92005 33.5765 5.89333 33.6165C5.86662 33.6574 5.84361 33.7004 5.82505 33.7449C5.8065 33.7895 5.7924 33.8362 5.78275 33.8837C5.7731 33.932 5.76865 33.9802 5.76865 34.0292C5.76865 34.0774 5.7731 34.1257 5.78275 34.1739C5.7924 34.2214 5.8065 34.2682 5.82505 34.3127C5.84361 34.3572 5.86662 34.4003 5.89333 34.4411C5.92005 34.4812 5.95122 34.519 5.98536 34.5539C6.12341 34.692 6.3149 34.7714 6.51083 34.7714C6.55908 34.7714 6.60732 34.7662 6.65556 34.7565C6.70306 34.7469 6.74982 34.7328 6.79435 34.7142C6.83888 34.6957 6.88193 34.6727 6.92201 34.646C6.96283 34.6185 7.00068 34.5881 7.03482 34.5539C7.0697 34.519 7.10013 34.4812 7.12759 34.4411C7.15431 34.4003 7.17732 34.3572 7.19587 34.3127C7.21443 34.2682 7.22853 34.2214 7.23818 34.1739C7.24783 34.1257 7.25302 34.0774 7.25302 34.0292C7.25302 33.9802 7.24783 33.932 7.23818 33.8837Z" fill="#E9EBFB"/>
<path d="M15.2158 31.6646C15.2062 31.6171 15.1921 31.5703 15.1735 31.5258C15.155 31.4813 15.132 31.4382 15.1053 31.3974C15.0778 31.3573 15.0466 31.3187 15.0125 31.2846C14.9783 31.2505 14.9405 31.2193 14.8997 31.1926C14.8596 31.1658 14.8166 31.1428 14.772 31.1243C14.7267 31.1057 14.68 31.0916 14.6332 31.082C14.5375 31.0627 14.4388 31.0627 14.343 31.082C14.2955 31.0916 14.2488 31.1057 14.2042 31.1243C14.159 31.1428 14.1159 31.1658 14.0758 31.1926C14.035 31.2193 13.9972 31.2505 13.963 31.2846C13.9289 31.3187 13.8977 31.3573 13.871 31.3974C13.8443 31.4382 13.8213 31.4813 13.8027 31.5258C13.7842 31.5703 13.7701 31.6171 13.7604 31.6646C13.7508 31.7128 13.7456 31.7611 13.7456 31.8093C13.7456 31.8583 13.7508 31.9065 13.7604 31.9548C13.7701 32.0023 13.7842 32.049 13.8027 32.0936C13.8213 32.1381 13.8443 32.1812 13.871 32.222C13.8977 32.2621 13.9289 32.3006 13.963 32.3348C13.9972 32.3689 14.035 32.3994 14.0758 32.4268C14.1159 32.4535 14.159 32.4765 14.2042 32.4951C14.2488 32.5137 14.2955 32.5278 14.343 32.5374C14.3905 32.5471 14.4395 32.5522 14.4878 32.5522C14.536 32.5522 14.585 32.5471 14.6332 32.5374C14.68 32.5278 14.7267 32.5137 14.772 32.4951C14.8166 32.4765 14.8596 32.4535 14.8997 32.4268C14.9405 32.3994 14.9783 32.3689 15.0125 32.3348C15.0466 32.3006 15.0778 32.2621 15.1053 32.222C15.132 32.1812 15.155 32.1381 15.1735 32.0936C15.1921 32.049 15.2062 32.0023 15.2158 31.9548C15.2255 31.9065 15.2299 31.8583 15.2299 31.8093C15.2299 31.7611 15.2255 31.7128 15.2158 31.6646Z" fill="#E9EBFB"/>
<path d="M23.7959 33.8838C23.7863 33.8363 23.7722 33.7896 23.7536 33.745C23.7351 33.7005 23.712 33.6575 23.6853 33.6166C23.6586 33.5766 23.6274 33.5387 23.5933 33.5038C23.5592 33.4697 23.5213 33.4393 23.4805 33.4118C23.4404 33.3851 23.3974 33.3621 23.3521 33.3435C23.3076 33.325 23.2608 33.3109 23.2133 33.3012C23.1176 33.2819 23.0188 33.2819 22.9231 33.3012C22.8763 33.3109 22.8296 33.325 22.7843 33.3435C22.7398 33.3621 22.6967 33.3851 22.6567 33.4118C22.6158 33.4393 22.578 33.4697 22.5438 33.5038C22.5097 33.5387 22.4785 33.5766 22.4511 33.6166C22.4244 33.6575 22.4013 33.7005 22.3828 33.745C22.3642 33.7896 22.3501 33.8363 22.3405 33.8838C22.3308 33.9321 22.3264 33.9803 22.3264 34.0293C22.3264 34.0775 22.3308 34.1258 22.3405 34.174C22.3501 34.2215 22.3642 34.2683 22.3828 34.3128C22.4013 34.3573 22.4244 34.4004 22.4511 34.4412C22.4785 34.4813 22.5097 34.5199 22.5438 34.554C22.578 34.5882 22.6158 34.6193 22.6567 34.6461C22.6967 34.6728 22.7398 34.6958 22.7843 34.7143C22.8296 34.7329 22.8763 34.747 22.9231 34.7566C22.9713 34.7663 23.0203 34.7715 23.0686 34.7715C23.2638 34.7715 23.4553 34.6921 23.5933 34.554C23.6274 34.5199 23.6586 34.4813 23.6853 34.4412C23.712 34.4004 23.7351 34.3573 23.7536 34.3128C23.7722 34.2683 23.7863 34.2215 23.7959 34.174C23.8056 34.1258 23.8108 34.0775 23.8108 34.0293C23.8108 33.9803 23.8056 33.9321 23.7959 33.8838Z" fill="#E9EBFB"/>
<path d="M32.217 32.1087C32.2074 32.0612 32.1933 32.0144 32.1747 31.9699C32.1561 31.9254 32.1331 31.8816 32.1064 31.8415C32.0797 31.8014 32.0485 31.7628 32.0144 31.7287C31.8756 31.5906 31.6849 31.5112 31.4897 31.5112C31.2937 31.5112 31.103 31.5906 30.9642 31.7287C30.93 31.7628 30.8996 31.8014 30.8722 31.8415C30.8454 31.8816 30.8224 31.9254 30.8039 31.9699C30.7853 32.0144 30.7712 32.0612 30.7616 32.1087C30.7519 32.1562 30.7475 32.2052 30.7475 32.2534C30.7475 32.3024 30.7519 32.3506 30.7616 32.3989C30.7712 32.4464 30.7853 32.4931 30.8039 32.5377C30.8224 32.5822 30.8454 32.6253 30.8722 32.6653C30.8996 32.7062 30.93 32.744 30.9642 32.7789C30.9991 32.813 31.0369 32.8435 31.077 32.8709C31.1178 32.8976 31.1609 32.9206 31.2054 32.9392C31.2499 32.9578 31.2967 32.9719 31.3442 32.9815C31.3924 32.9912 31.4407 32.9956 31.4897 32.9956C31.6849 32.9956 31.8763 32.9169 32.0144 32.7789C32.0485 32.744 32.0797 32.7062 32.1064 32.6653C32.1331 32.6253 32.1561 32.5822 32.1747 32.5377C32.1933 32.4924 32.2074 32.4464 32.217 32.3989C32.2266 32.3506 32.2318 32.3024 32.2318 32.2534C32.2318 32.2051 32.2266 32.1562 32.217 32.1087Z" fill="#E9EBFB"/>
<path d="M24.8324 19.9765C24.8227 19.9297 24.8086 19.883 24.7901 19.8377C24.7715 19.7932 24.7485 19.7501 24.7218 19.71C24.6943 19.6692 24.6631 19.6314 24.629 19.5972C24.5949 19.5623 24.557 19.5319 24.5162 19.5045C24.4761 19.4777 24.4331 19.4547 24.3885 19.4362C24.3433 19.4176 24.2965 19.4035 24.2497 19.3939C24.154 19.3746 24.0553 19.3746 23.9596 19.3939C23.9121 19.4035 23.8653 19.4176 23.8208 19.4362C23.7755 19.4547 23.7324 19.4777 23.6924 19.5045C23.6515 19.5319 23.6137 19.5623 23.5796 19.5972C23.5454 19.6314 23.5142 19.6692 23.4875 19.71C23.4608 19.7501 23.4378 19.7932 23.4192 19.8377C23.4007 19.883 23.3866 19.9297 23.3769 19.9765C23.3673 20.0247 23.3621 20.0737 23.3621 20.122C23.3621 20.1702 23.3673 20.2192 23.3769 20.2667C23.3866 20.3142 23.4007 20.3609 23.4192 20.4055C23.4378 20.45 23.4608 20.4938 23.4875 20.5339C23.5142 20.5747 23.5454 20.6125 23.5796 20.6467C23.6137 20.6808 23.6515 20.712 23.6924 20.7387C23.7324 20.7654 23.7755 20.7884 23.8208 20.807C23.8653 20.8255 23.9121 20.8396 23.9596 20.8493C24.0071 20.8589 24.056 20.8641 24.1043 20.8641C24.1525 20.8641 24.2015 20.8589 24.2497 20.8493C24.2965 20.8396 24.3433 20.8255 24.3885 20.807C24.4331 20.7884 24.4761 20.7654 24.5162 20.7387C24.557 20.712 24.5949 20.6808 24.629 20.6467C24.6631 20.6125 24.6943 20.5747 24.7218 20.5339C24.7485 20.4938 24.7715 20.45 24.7901 20.4055C24.8086 20.3609 24.8227 20.3142 24.8324 20.2667C24.842 20.2192 24.8465 20.1702 24.8465 20.122C24.8465 20.0737 24.842 20.0247 24.8324 19.9765Z" fill="#E9EBFB"/>
<path d="M15.1414 18.9659C15.1317 18.9184 15.1176 18.8716 15.0991 18.8271C15.0805 18.7825 15.0575 18.7395 15.0308 18.6987C15.0041 18.6586 14.9729 18.62 14.9388 18.5859C14.9046 18.5517 14.866 18.5206 14.8259 18.4938C14.7851 18.4671 14.7421 18.4441 14.6975 18.4256C14.653 18.407 14.6063 18.3929 14.5588 18.3832C14.463 18.364 14.3643 18.364 14.2686 18.3832C14.2211 18.3929 14.1743 18.407 14.1298 18.4256C14.0852 18.4441 14.0422 18.4671 14.0014 18.4938C13.9613 18.5206 13.9234 18.5517 13.8886 18.5859C13.8544 18.62 13.824 18.6586 13.7965 18.6987C13.7698 18.7395 13.7468 18.7825 13.7283 18.8271C13.7097 18.8716 13.6956 18.9184 13.6859 18.9659C13.6763 19.0141 13.6718 19.0623 13.6718 19.1113C13.6718 19.1596 13.6763 19.2078 13.6859 19.2561C13.6956 19.3036 13.7097 19.3503 13.7283 19.3948C13.7468 19.4394 13.7698 19.4824 13.7965 19.5232C13.824 19.5633 13.8544 19.6012 13.8886 19.6361C13.9234 19.6702 13.9613 19.7006 14.0014 19.7281C14.0422 19.7548 14.0852 19.7778 14.1298 19.7964C14.1743 19.8149 14.2211 19.829 14.2686 19.8387C14.3168 19.8483 14.365 19.8535 14.414 19.8535C14.4623 19.8535 14.5113 19.8483 14.5588 19.8387C14.6063 19.829 14.653 19.8149 14.6975 19.7964C14.7421 19.7778 14.7851 19.7548 14.8259 19.7281C14.866 19.7006 14.9046 19.6702 14.9388 19.6361C14.9729 19.6012 15.0033 19.5633 15.0308 19.5232C15.0575 19.4824 15.0805 19.4394 15.0991 19.3948C15.1176 19.3503 15.1317 19.3036 15.1414 19.2561C15.151 19.2078 15.1555 19.1596 15.1555 19.1113C15.1555 19.0623 15.151 19.014 15.1414 18.9659Z" fill="#E9EBFB"/>
</svg>
