<svg width="23" height="22" viewBox="0 0 23 22" fill="none" xmlns="http://www.w3.org/2000/svg">
<g clip-path="url(#clip0)">
<path d="M21.1365 6.71911C19.9758 4.01494 18.0035 2.04828 15.2748 0.885333C13.911 0.304094 12.4822 0.00720215 10.9895 0.00720215C9.49711 0.00720215 8.07885 0.30129 6.71657 0.885333C4.01052 2.04519 2.0294 4.01059 0.866654 6.71911C0.284004 8.07606 0 9.49769 0 10.9891C0 12.4808 0.284004 13.9142 0.866654 15.2714C2.0294 17.9799 4.01077 19.9571 6.71657 21.1173C8.0791 21.7013 9.49708 21.9951 10.9895 21.9951C12.482 21.9951 13.911 21.6982 15.2746 21.1173C18.0032 19.9543 19.9756 17.9753 21.1366 15.2714C21.721 13.9098 22.0153 12.4808 22.0153 10.9891C22.0153 9.49769 21.7212 8.08066 21.1365 6.71911ZM19.3793 15.8488C18.5152 17.3297 17.3315 18.5045 15.8405 19.3731C14.3586 20.2366 12.7349 20.6721 10.9898 20.6721C9.67787 20.6721 8.42602 20.4196 7.23425 19.9022C6.04251 19.3852 5.01355 18.7054 4.15279 17.8455C3.29204 16.9853 2.60694 15.9471 2.09465 14.7541C1.58388 13.5655 1.33635 12.3004 1.33635 10.9891C1.33635 9.24494 1.76518 7.6306 2.62442 6.15383C3.48672 4.67167 4.67076 3.4956 6.15115 2.62952C7.63128 1.76346 9.24444 1.33029 10.9895 1.33029C12.7349 1.33029 14.3584 1.76602 15.8403 2.62952C17.3312 3.49816 18.5124 4.67419 19.3791 6.15379C20.2457 7.63315 20.679 9.24494 20.679 10.9891C20.679 12.7333 20.2486 14.3586 19.3793 15.8488Z" fill="white"/>
<path d="M11.6876 10.8918V4.66101C11.6876 4.28817 11.3625 3.98743 10.9894 3.98743C10.6404 3.98743 10.3274 4.28817 10.3274 4.66101V10.988C10.3274 11.0001 10.3515 11.0483 10.3515 11.0843C10.3274 11.3008 10.3878 11.4812 10.5321 11.6257L14.1313 15.2221C14.3721 15.4628 14.8174 15.4628 15.058 15.2221C15.3348 14.9455 15.3166 14.5442 15.058 14.2839L11.6876 10.8918Z" fill="white"/>
</g>
<defs>
<clipPath id="clip0">
<rect width="22.0153" height="22" fill="white"/>
</clipPath>
</defs>
</svg>
