<svg width="38" height="38" viewBox="0 0 38 38" fill="none" xmlns="http://www.w3.org/2000/svg">
<path d="M25.9102 23.8304C25.7917 23.5015 25.4289 23.3309 25.1 23.4495C24.7711 23.568 24.6005 23.9308 24.7191 24.2597C24.722 24.2677 24.7251 24.2757 24.7283 24.2837C25.3057 25.7905 25.3475 26.9427 24.8423 27.4492C24.2295 28.0607 22.7031 27.8695 20.7582 26.9389C18.1545 25.5869 15.7878 23.8208 13.7506 21.7096C8.79164 16.75 6.7455 11.8835 8.01104 10.6179C8.41487 10.299 8.93978 10.1765 9.44308 10.2837C9.79176 10.3093 10.0952 10.0474 10.1209 9.69868C10.1457 9.36164 9.90136 9.06456 9.5659 9.02381C8.68568 8.86807 7.78258 9.12471 7.11586 9.7202C4.79623 12.0392 8.34215 18.0883 12.8554 22.6023C14.9938 24.815 17.4785 26.6645 20.2119 28.0778C20.7069 28.3148 21.217 28.5189 21.7389 28.6887L17.2408 30.3943C11.2344 28.1107 6.9105 22.7858 5.90856 16.4385C5.85435 16.0931 5.53037 15.857 5.18494 15.9112C4.83952 15.9654 4.60338 16.2893 4.65758 16.6348C4.75698 17.2679 4.88993 17.901 5.05263 18.5201C6.51047 24.0437 10.3502 28.6324 15.5302 31.0413L8.1269 33.8427C8.09295 33.786 8.05021 33.7352 8.00028 33.692C6.11875 32.1814 4.9382 29.966 4.73355 27.5619L4.4398 24.0045C4.41669 23.6599 4.11851 23.3992 3.77379 23.4223C3.76723 23.4228 3.76066 23.4233 3.75417 23.424C3.40566 23.4517 3.14554 23.7568 3.17323 24.1053C3.17331 24.1067 3.17347 24.1082 3.17363 24.1096L3.47245 27.6657C3.69498 30.2355 4.89372 32.6222 6.82211 34.3353L1.5409 36.3345L2.49053 32.4373C2.57338 32.0974 2.3651 31.7547 2.02521 31.6719C1.68532 31.589 1.34266 31.7973 1.25981 32.1372L0.0246562 37.2019C-0.0585947 37.5414 0.149216 37.8843 0.488867 37.9674C0.613427 37.998 0.744238 37.9899 0.864129 37.9445L24.2883 29.0813C24.3256 29.0631 24.3608 29.041 24.3934 29.0154C24.9004 28.9376 25.3704 28.7031 25.7375 28.345C26.3648 27.7176 26.9048 26.4242 25.9102 23.8304Z" fill="#E9EBFB"/>
<path d="M31.8848 22.1979C28.4624 20.9167 24.7633 20.5575 21.1584 21.1565L18.8964 21.5364C18.553 21.6024 18.3282 21.9342 18.3942 22.2776C18.4579 22.6093 18.7709 22.8325 19.1053 22.7848L21.3667 22.4081C24.7523 21.8452 28.2264 22.1828 31.4403 23.3869C31.5116 23.4121 31.5869 23.4248 31.6626 23.4242C32.0122 23.4248 32.2961 23.1419 32.2967 22.7922C32.2972 22.5275 32.1329 22.2905 31.8848 22.1979Z" fill="#E9EBFB"/>
<path d="M34.1354 12.3893C33.985 12.0736 33.6072 11.9395 33.2915 12.0899L19.9967 18.4207C19.681 18.571 19.5468 18.9487 19.6971 19.2645C19.6971 19.2646 19.6972 19.2646 19.6972 19.2646C19.8475 19.5803 20.2252 19.7145 20.5409 19.5642C20.541 19.5642 20.541 19.5641 20.5411 19.5641L33.8359 13.2332C34.1517 13.0829 34.2857 12.7051 34.1354 12.3893Z" fill="#E9EBFB"/>
<path d="M15.3818 4.29678C15.3121 3.95412 14.9779 3.73278 14.6353 3.80242C14.2926 3.87206 14.0713 4.20625 14.1409 4.54891C14.1424 4.5565 14.1441 4.56402 14.146 4.57154C14.9473 8.15157 14.6171 11.8922 13.2008 15.2764L12.2803 17.4852C12.1472 17.8071 12.2991 18.1759 12.6202 18.3108C12.6971 18.3432 12.7798 18.3597 12.8633 18.3595C13.1189 18.3595 13.3493 18.206 13.4477 17.9702L14.3688 15.7639C15.8862 12.1387 16.2402 8.13178 15.3818 4.29678Z" fill="#E9EBFB"/>
<path d="M34.8283 22.7912C33.7793 22.7912 32.929 23.6415 32.929 24.6905C32.929 25.7394 33.7793 26.5897 34.8283 26.5897C35.8772 26.5897 36.7275 25.7394 36.7275 24.6905C36.7275 23.6415 35.8772 22.7912 34.8283 22.7912ZM34.8283 25.3235C34.4786 25.3235 34.1952 25.0401 34.1952 24.6905C34.1952 24.3408 34.4786 24.0574 34.8283 24.0574C35.1779 24.0574 35.4614 24.3408 35.4614 24.6905C35.4614 25.0401 35.1779 25.3235 34.8283 25.3235Z" fill="#E9EBFB"/>
<path d="M19.6342 5.0647C18.5853 5.0647 17.7349 5.91501 17.7349 6.96396C17.7349 8.0129 18.5853 8.86322 19.6342 8.86322C20.6831 8.86322 21.5335 8.0129 21.5335 6.96396C21.5335 5.91501 20.6831 5.0647 19.6342 5.0647ZM19.6342 7.59704C19.2846 7.59704 19.0011 7.31358 19.0011 6.96396C19.0011 6.61434 19.2846 6.33087 19.6342 6.33087C19.9838 6.33087 20.2673 6.61434 20.2673 6.96396C20.2673 7.31358 19.9838 7.59704 19.6342 7.59704Z" fill="#E9EBFB"/>
<path d="M13.9364 2.53235C14.6357 2.53235 15.2026 1.96546 15.2026 1.26617C15.2026 0.566885 14.6357 0 13.9364 0C13.2371 0 12.6702 0.566885 12.6702 1.26617C12.6702 1.96546 13.2371 2.53235 13.9364 2.53235Z" fill="#E9EBFB"/>
<path d="M31.6626 3.16516C31.313 3.16516 31.0295 3.44863 31.0295 3.79825V4.43134C31.0295 4.78096 31.313 5.06442 31.6626 5.06442C32.0122 5.06442 32.2957 4.78096 32.2957 4.43134V3.79825C32.2957 3.44863 32.0122 3.16516 31.6626 3.16516Z" fill="#E9EBFB"/>
<path d="M31.6626 0C31.313 0 31.0295 0.283465 31.0295 0.633087V1.26617C31.0295 1.6158 31.313 1.89926 31.6626 1.89926C32.0122 1.89926 32.2957 1.6158 32.2957 1.26617V0.633087C32.2957 0.283465 32.0122 0 31.6626 0Z" fill="#E9EBFB"/>
<path d="M33.5623 1.89893H32.9293C32.5796 1.89893 32.2962 2.18239 32.2962 2.53201C32.2962 2.88163 32.5796 3.1651 32.9293 3.1651H33.5623C33.912 3.1651 34.1954 2.88163 34.1954 2.53201C34.1954 2.18239 33.912 1.89893 33.5623 1.89893Z" fill="#E9EBFB"/>
<path d="M30.3962 1.89893H29.7631C29.4134 1.89893 29.13 2.18239 29.13 2.53201C29.13 2.88163 29.4134 3.1651 29.7631 3.1651H30.3962C30.7458 3.1651 31.0292 2.88163 31.0292 2.53201C31.0292 2.18239 30.7458 1.89893 30.3962 1.89893Z" fill="#E9EBFB"/>
<path d="M27.2315 6.95093H24.0527C23.7031 6.95093 23.4196 7.23439 23.4196 7.58401V10.7627C23.4196 11.1124 23.7031 11.3958 24.0527 11.3958H27.2315C27.5811 11.3958 27.8645 11.1124 27.8645 10.7627V7.58401C27.8645 7.23439 27.5811 6.95093 27.2315 6.95093ZM26.5984 10.1297H24.6858V8.2171H26.5984V10.1297Z" fill="#E9EBFB"/>
<path d="M19.5765 13.8803C19.3441 13.6322 18.9573 13.6119 18.7003 13.8344L12.3694 19.5321C12.1097 19.7661 12.0887 20.1663 12.3225 20.4261C12.5565 20.6858 12.9567 20.7068 13.2165 20.4729L19.5473 14.7751C19.8025 14.5361 19.8156 14.1355 19.5765 13.8803Z" fill="#E9EBFB"/>
<path d="M34.1949 14.5607C33.8453 14.5607 33.5618 14.8441 33.5618 15.1938V15.8268C33.5618 16.1765 33.8453 16.4599 34.1949 16.4599C34.5445 16.4599 34.828 16.1765 34.828 15.8268V15.1938C34.828 14.8441 34.5445 14.5607 34.1949 14.5607Z" fill="#E9EBFB"/>
<path d="M36.8812 14.4523L36.4336 14.0047C36.1821 13.7617 35.7814 13.7687 35.5384 14.0202C35.3015 14.2655 35.3015 14.6544 35.5384 14.8998L35.986 15.3474C36.2375 15.5904 36.6383 15.5834 36.8812 15.3319C37.1182 15.0865 37.1182 14.6976 36.8812 14.4523Z" fill="#E9EBFB"/>
<path d="M37.3604 12.0289H36.7273C36.3776 12.0289 36.0942 12.3124 36.0942 12.662C36.0942 13.0116 36.3776 13.2951 36.7273 13.2951H37.3604C37.71 13.2951 37.9934 13.0116 37.9934 12.662C37.9934 12.3124 37.71 12.0289 37.3604 12.0289Z" fill="#E9EBFB"/>
<path d="M36.8653 9.9761C36.62 9.73917 36.231 9.73917 35.9856 9.9761L35.538 10.4237C35.2908 10.671 35.2909 11.0718 35.5382 11.319C35.6569 11.4377 35.8178 11.5044 35.9856 11.5044C36.1535 11.5044 36.3145 11.4376 36.4332 11.3189L36.8808 10.8713C37.1237 10.6198 37.1168 10.219 36.8653 9.9761Z" fill="#E9EBFB"/>
<path d="M34.1949 8.86316C33.8453 8.86316 33.5618 9.14662 33.5618 9.49625V10.1293C33.5618 10.479 33.8453 10.7624 34.1949 10.7624C34.5445 10.7624 34.828 10.479 34.828 10.1293V9.49625C34.828 9.14662 34.5445 8.86316 34.1949 8.86316Z" fill="#E9EBFB"/>
<path d="M32.852 10.4237L32.4044 9.97613C32.1529 9.73326 31.7521 9.74014 31.5092 9.99164C31.2722 10.237 31.2722 10.6259 31.5092 10.8713L31.9568 11.3189C32.2083 11.5619 32.609 11.5549 32.852 11.3034C33.089 11.058 33.089 10.669 32.852 10.4237Z" fill="#E9EBFB"/>
<path d="M7.57483 2.73748C7.50028 2.50846 7.3022 2.34164 7.06392 2.30698L5.20581 2.03665L4.3771 0.353275C4.1924 0.0396599 3.78841 -0.0648786 3.4748 0.119824C3.37841 0.176565 3.29809 0.256888 3.24135 0.353275L2.40884 2.03665L0.550728 2.30698C0.204667 2.35692 -0.0353517 2.67797 0.014583 3.02403C0.0344461 3.16181 0.0991793 3.28914 0.198732 3.38639L1.54278 4.69688L1.22623 6.5474C1.16546 6.89172 1.39527 7.22013 1.73959 7.28091C1.87823 7.30536 2.02099 7.28296 2.14547 7.2172L3.80733 6.34101L5.46918 7.21467C5.77868 7.37737 6.16146 7.25843 6.32416 6.94893C6.38897 6.82572 6.41129 6.68462 6.38779 6.5474L6.07124 4.69688L7.41592 3.38639C7.58804 3.21791 7.64961 2.96642 7.57483 2.73748ZM4.94688 4.02265C4.79779 4.16786 4.72965 4.3771 4.76455 4.58229L4.92156 5.4971L4.10171 5.06471C3.9174 4.96792 3.69725 4.96792 3.51294 5.06471L2.68993 5.49647L2.84693 4.58166C2.88247 4.37725 2.81552 4.16833 2.66777 4.02265L2.0024 3.375L2.921 3.24142C3.12723 3.2115 3.30553 3.08196 3.39772 2.89512L3.80733 2.06388L4.21757 2.89512C4.30968 3.0818 4.48766 3.21127 4.69365 3.24142L5.61162 3.375L4.94688 4.02265Z" fill="#E9EBFB"/>
<path d="M35.8548 31.7333H35.8523L35.5915 31.3421C34.129 29.155 31.8292 27.6679 29.2347 27.2315C28.8885 27.1821 28.5679 27.4227 28.5185 27.7688C28.4708 28.1032 28.694 28.4162 29.0257 28.4799C30.8971 28.7976 32.6026 29.7483 33.8568 31.1731C32.8023 31.3627 31.8801 31.9961 31.3245 32.9121C30.6426 34.1333 31.0799 35.6759 32.301 36.3577C33.5222 37.0396 35.0648 36.6023 35.7466 35.3812C36.007 34.8784 36.1476 34.3222 36.1575 33.7561C36.8311 34.7344 36.885 36.0121 36.2961 37.0437C36.1177 37.3444 36.2169 37.7328 36.5176 37.9112C36.8183 38.0895 37.2067 37.9904 37.3851 37.6897C37.3908 37.68 37.3963 37.6703 37.4015 37.6603C38.5607 35.5898 37.8779 32.9735 35.8548 31.7333ZM34.6425 34.7633C34.3046 35.3756 33.5343 35.5979 32.9222 35.26C32.31 34.9221 32.0875 34.1519 32.4254 33.5397C32.4273 33.5363 32.4292 33.5328 32.4311 33.5294C32.8047 32.9177 33.4349 32.5076 34.1455 32.4139C34.2556 32.4109 34.3646 32.4362 34.4621 32.4873C34.9964 32.7855 35.0249 34.0783 34.6425 34.7633Z" fill="#E9EBFB"/>
</svg>
