<svg width="38" height="38" viewBox="0 0 38 38" fill="none" xmlns="http://www.w3.org/2000/svg">
<g clip-path="url(#clip0)">
<path d="M30.2341 3.60049C27.8345 3.60454 25.8113 5.40296 25.5092 7.80049H24.0127L25.9155 1.20049H27.8511V0.000488281H25.4681C25.2032 0.000563281 24.9702 0.176888 24.8962 0.433088L22.7724 7.80049H7.59589C7.26689 7.80041 7.00007 8.06899 7 8.40034C7 8.53564 7.04535 8.66696 7.12883 8.77309L18.3192 23.0093V34.8005H13.5533V36.0005H24.2767V34.8005H19.5107V23.0093L27.7748 12.4961C28.5134 12.9571 29.3652 13.2011 30.2341 13.2005C32.8662 13.2005 35 11.0514 35 8.40049C35 5.74954 32.8662 3.60049 30.2341 3.60049ZM8.82729 9.00049H22.4263L21.2157 13.2005H12.1289L8.82729 9.00049ZM18.915 21.8339L13.0719 14.4005H20.8702L19.5345 19.0331L20.6784 19.3679L22.1105 14.4005H24.758L18.915 21.8339ZM25.7011 13.2005H22.4561L23.6672 9.00049H29.0027L25.7011 13.2005ZM30.2341 12.0005C29.6321 12.0036 29.0396 11.8506 28.5136 11.5559L30.7011 8.77309C30.9055 8.51336 30.8621 8.13596 30.6042 7.93016C30.4989 7.84616 30.3685 7.80041 30.2341 7.80049H26.7091C27.0381 5.84006 28.8828 4.51946 30.8293 4.85081C32.7758 5.18216 34.087 7.04006 33.758 9.00049C33.4673 10.7324 31.9781 12.0002 30.2341 12.0005Z" fill="#E9EBFB"/>
</g>
<defs>
<clipPath id="clip0">
<rect width="38" height="38" fill="white" transform="translate(0 0.000488281)"/>
</clipPath>
</defs>
</svg>
