<svg width="23" height="22" viewBox="0 0 23 22" fill="none" xmlns="http://www.w3.org/2000/svg">
<g clip-path="url(#clip0)">
<path d="M20.1819 2.62109H2.0365C0.970908 2.62109 0.101562 3.48889 0.101562 4.55469V17.4453C0.101562 18.5075 0.967038 19.3789 2.0365 19.3789H20.1819C21.2448 19.3789 22.1168 18.514 22.1168 17.4453V4.55469C22.1168 3.4925 21.2514 2.62109 20.1819 2.62109ZM19.9147 3.91016L11.1502 12.6686L2.30993 3.91016H19.9147ZM1.39152 17.1784V4.81546L7.60391 10.9703L1.39152 17.1784ZM2.30365 18.0898L8.51996 11.8779L10.6981 14.0358C10.9503 14.2856 11.3572 14.2848 11.6083 14.0339L13.7321 11.9115L19.9148 18.0898H2.30365ZM20.8269 17.1783L14.6442 11L20.8269 4.82161V17.1783Z" fill="white"/>
</g>
<defs>
<clipPath id="clip0">
<rect width="22.0153" height="22" fill="white" transform="translate(0.101562)"/>
</clipPath>
</defs>
</svg>
