<svg width="52" height="52" viewBox="0 0 52 52" fill="none" xmlns="http://www.w3.org/2000/svg">
<g clip-path="url(#clip0)">
<path d="M43.5545 9.34254C41.4503 7.23833 38.2938 6.51428 35.3166 7.45321L25.9993 10.3912L16.6824 7.45321C13.7048 6.51428 10.5482 7.23833 8.44403 9.34254L2.28735 15.4988C-0.900269 18.6868 -0.737368 24.0429 2.65163 27.4381C6.37175 31.1655 10.3841 35.1844 13.7293 38.5288C13.4146 39.715 13.7494 40.9793 14.6105 41.854L14.6556 41.899C15.3014 42.5408 16.1769 42.8985 17.0876 42.8928C17.3913 42.8924 17.6934 42.8543 17.9877 42.7798L18.3437 43.1343C18.8709 43.6618 19.5414 44.0237 20.2715 44.1755C20.8998 44.7277 21.709 45.0297 22.5456 45.0232C22.5878 45.0232 22.6303 45.0224 22.6733 45.0207C23.6368 44.9839 24.5504 44.5815 25.2282 43.8951L25.9993 43.1232L26.7712 43.8951C27.449 44.5815 28.3626 44.9839 29.3265 45.0207C29.369 45.0224 29.4116 45.0232 29.4538 45.0232C30.2883 45.0289 31.0959 44.7285 31.7233 44.1784C32.4548 44.0245 33.1256 43.6618 33.6552 43.1343L34.0134 42.7778C35.2007 43.0929 36.4663 42.7589 37.3434 41.899L37.3876 41.8548C38.2459 40.9789 38.5803 39.7162 38.268 38.5305C41.5821 35.2172 45.5441 31.2486 49.3473 27.4381C52.7359 24.0433 52.8992 18.6872 49.7108 15.4988L43.5545 9.34254ZM15.8413 40.7141L15.7963 40.6691C15.6976 40.57 15.6113 40.4591 15.54 40.3383L16.1732 40.9707C16.0521 40.8995 15.9408 40.8131 15.8413 40.7137V40.7141ZM24.042 42.7098C23.9364 42.8146 23.8214 42.9087 23.6974 42.991C24.0498 42.5694 24.2929 42.068 24.4067 41.5306L24.8139 41.9379L24.042 42.7098ZM36.2019 40.6695L36.1577 40.7137C35.4394 41.432 34.2098 41.3714 33.417 40.5786L20.5433 27.7049C20.3325 27.4892 20.0219 27.4037 19.7305 27.4806C19.4386 27.5576 19.2106 27.7856 19.1337 28.0774C19.0567 28.3688 19.1423 28.6795 19.358 28.8907L30.5613 40.0936L30.5671 40.0997C30.9526 40.4771 31.1798 40.9875 31.2027 41.5265C31.2301 42.0169 31.0472 42.4958 30.7001 42.8428C30.3526 43.1899 29.8741 43.3729 29.3838 43.3455C28.8447 43.3229 28.3343 43.0954 27.9566 42.7098L16.7479 31.5012C16.4205 31.1737 15.8896 31.1737 15.5622 31.5012C15.2347 31.8286 15.2347 32.3595 15.5622 32.6865L22.1699 39.2942C22.5554 39.672 22.7826 40.182 22.8055 40.7214C22.8297 41.2101 22.6483 41.6866 22.3049 42.0349L22.2628 42.077C21.5461 42.7933 20.3186 42.7348 19.5262 41.9461C19.295 41.716 19.0531 41.475 18.8001 41.2232L18.7956 41.2187C17.808 40.2344 16.6628 39.0912 15.4132 37.8424C15.3436 37.7262 15.2462 37.6292 15.1303 37.5592C11.7434 34.1735 7.63853 30.0621 3.83778 26.2535C1.10161 23.5121 0.938303 19.2193 3.47309 16.6841L9.62936 10.5283C11.2899 8.86775 13.7993 8.3021 16.1781 9.05234L23.2124 11.2703L19.2831 12.5093C18.9065 12.628 18.6638 12.9935 18.7002 13.3864L18.796 14.4154C18.8443 15.7063 19.4243 16.9203 20.3988 17.7692C21.3975 18.632 22.7097 19.0405 24.022 18.8972L24.5802 18.8424L25.407 19.6704L36.9153 31.195C37.7073 31.9878 37.7675 33.2174 37.0491 33.9349L37.045 33.9394C36.3435 34.636 35.1598 34.5942 34.3678 33.8575C33.0617 32.5514 31.6374 31.1283 30.2851 29.7764C27.2521 26.7451 24.633 24.1272 24.3801 23.8722C24.0535 23.5464 23.5251 23.546 23.1976 23.871C22.8702 24.196 22.8669 24.7244 23.1907 25.0535C23.4457 25.3109 26.066 27.9296 29.1001 30.9621L33.0883 34.9491C33.0994 34.9614 33.1109 34.9737 33.1231 34.9855C33.1489 35.0113 33.1755 35.0367 33.2013 35.0617C34.27 36.1307 35.2601 37.1204 36.0685 37.9284C36.8604 38.7212 36.9206 39.9507 36.2019 40.6695ZM48.1604 26.2535C44.5012 29.92 40.6944 33.7331 37.4597 36.9678C37.3938 36.8912 37.3258 36.8159 37.2534 36.7435C37.0303 36.52 36.7929 36.283 36.5441 36.0342C37.1842 35.9003 37.7715 35.5827 38.2341 35.1206L38.2406 35.1145C39.6056 33.7429 39.5438 31.4549 38.1014 30.0105L27.1834 19.0773L27.9377 18.3213C28.1878 18.0712 28.2537 17.6906 28.1023 17.3705C27.9512 17.0509 27.6152 16.8605 27.2628 16.8949L23.8574 17.2289C23.0044 17.3251 22.1494 17.0623 21.4978 16.5036C20.8671 15.9511 20.4946 15.1607 20.4692 14.3225C20.4692 14.3086 20.468 14.2942 20.4668 14.2799L20.4316 13.9046L26.2354 12.0742L26.2387 12.0734L35.82 9.05193C38.1984 8.30169 40.7079 8.86734 42.3688 10.5283L48.5247 16.6841C51.0603 19.2193 50.8969 23.5121 48.1604 26.2535Z" fill="#7D0A0B"/>
</g>
<defs>
<clipPath id="clip0">
<rect width="52" height="52" fill="white"/>
</clipPath>
</defs>
</svg>
