<svg width="52" height="52" viewBox="0 0 52 52" fill="none" xmlns="http://www.w3.org/2000/svg">
<path d="M26.0004 17.9962C25.5372 17.9962 25.1617 18.3717 25.1617 18.8349V19.4234H25.1284C24.6652 19.4234 24.2897 19.7989 24.2897 20.2621C24.2897 20.7253 24.6652 21.1008 25.1284 21.1008H26.8725C27.3358 21.1008 27.7112 20.7253 27.7112 20.2621C27.7112 19.7989 27.3358 19.4234 26.8725 19.4234H26.8391V18.8349C26.8391 18.3717 26.4637 17.9962 26.0004 17.9962Z" fill="#7D0A0B"/>
<path d="M19.5465 13.2102C19.6638 13.5473 19.9817 13.7732 20.3385 13.7732H25.1617V15.7595H25.1283C24.6652 15.7595 24.2896 16.135 24.2896 16.5982C24.2896 17.0614 24.6652 17.4369 25.1283 17.4369H26.8724C27.3357 17.4369 27.7111 17.0614 27.7111 16.5982C27.7111 16.135 27.3357 15.7595 26.8724 15.7595H26.8391V13.7732H31.6622C32.0191 13.7732 32.3369 13.5473 32.4543 13.2102L33.6782 9.69515C33.7675 9.43873 33.7271 9.1548 33.5697 8.93349C33.4125 8.71218 33.1576 8.58067 32.8861 8.58067H26.8391V6.8044C28.4379 6.42474 29.6311 4.98574 29.6311 3.27253V1.67742H29.9107C30.374 1.67742 30.7494 1.3019 30.7494 0.83871C30.7494 0.375518 30.374 0 29.9107 0H22.0901C21.6269 0 21.2514 0.375518 21.2514 0.83871C21.2514 1.3019 21.6269 1.67742 22.0901 1.67742H22.3697V3.27253C22.3697 4.98585 23.5629 6.42474 25.1617 6.8044V8.58067H19.1147C18.8432 8.58067 18.5883 8.71218 18.4311 8.93349C18.2737 9.1548 18.2334 9.43873 18.3226 9.69515L19.5465 13.2102ZM24.0471 3.27253V1.67742H27.9537V3.27253C27.9537 4.34955 27.0774 5.22583 26.0004 5.22583C24.9234 5.22583 24.0471 4.34955 24.0471 3.27253ZM31.7061 10.2581L31.0662 12.0958H20.9346L20.2948 10.2581H31.7061Z" fill="#7D0A0B"/>
<path d="M46.2554 19.3161H45.7156V16.5982C45.7156 16.135 45.3402 15.7595 44.8769 15.7595C44.4136 15.7595 44.0382 16.135 44.0382 16.5982V19.3161H43.4983C43.035 19.3161 42.6596 19.6917 42.6596 20.1549V32.726C42.6596 33.1892 43.035 33.5647 43.4983 33.5647H44.0382V46.2199C44.0382 47.0935 43.3275 47.8042 42.4539 47.8042C41.5803 47.8042 40.8698 47.0935 40.8698 46.2199V22.1943C40.8698 19.8898 38.9949 18.0149 36.6904 18.0149C35.9361 18.0149 35.2583 18.1852 34.6658 18.5207C34.3471 18.3453 33.9388 18.3919 33.6685 18.6621C33.4395 18.8911 33.3712 19.2195 33.4625 19.5084C32.3108 20.6269 30.002 22.962 28.9474 24.0315C28.3319 23.5922 27.6153 23.2866 26.8393 23.1572V22.4983C26.8393 22.0351 26.4639 21.6596 26.0006 21.6596C25.5374 21.6596 25.1619 22.0351 25.1619 22.4983V23.1572C24.3859 23.2866 23.6693 23.5922 23.0538 24.0315C21.9992 22.9621 19.6904 20.6269 18.5386 19.5084C18.63 19.2195 18.5617 18.8911 18.3325 18.6621C18.0624 18.3919 17.6541 18.3453 17.3354 18.5207C16.743 18.1851 16.0652 18.0149 15.3107 18.0149C13.0063 18.0149 11.1315 19.8897 11.1315 22.1943V46.2199C11.1315 47.0935 10.4208 47.8042 9.54722 47.8042C8.67362 47.8042 7.96296 47.0935 7.96296 46.2199V33.5647H8.50286C8.96605 33.5647 9.34157 33.1892 9.34157 32.726V20.1549C9.34157 19.6917 8.96605 19.3161 8.50286 19.3161H7.96296V16.5982C7.96296 16.135 7.58744 15.7595 7.12425 15.7595C6.66105 15.7595 6.28554 16.135 6.28554 16.5982V19.3161H5.74563C5.28244 19.3161 4.90692 19.6917 4.90692 20.1549V32.726C4.90692 33.1892 5.28244 33.5647 5.74563 33.5647H6.28554V46.2199C6.28554 48.0185 7.74869 49.4816 9.54722 49.4816C11.3458 49.4816 12.8089 48.0185 12.8089 46.2199V22.1943C12.8089 20.8148 13.9312 19.6923 15.3107 19.6923C15.6576 19.6923 15.9604 19.745 16.2334 19.8504C16.2118 20.0894 16.2923 20.3361 16.4755 20.5192C16.6392 20.6829 16.8539 20.7649 17.0685 20.7649C17.1703 20.7649 17.2718 20.7459 17.3681 20.7091C18.4052 21.7168 20.572 23.9038 21.8664 25.2163C21.2685 26.0501 20.915 27.0706 20.915 28.1727C20.915 29.4828 21.4131 30.6784 22.2295 31.581H22.1662C21.703 31.581 21.3275 31.9565 21.3275 32.4197C21.3275 32.8829 21.703 33.2584 22.1662 33.2584H22.4458V38.3535C20.09 39.6451 18.5956 42.1379 18.5956 44.8488V50.3226H18.316C17.8528 50.3226 17.4773 50.6981 17.4773 51.1613C17.4773 51.6245 17.8528 52 18.316 52H19.4343H32.5671H33.6854C34.1487 52 34.5241 51.6245 34.5241 51.1613C34.5241 50.6981 34.1487 50.3226 33.6854 50.3226H33.4058V44.8488C33.4058 42.1379 31.9115 39.645 29.5555 38.3535V33.2584H29.8351C30.2984 33.2584 30.6738 32.8829 30.6738 32.4197C30.6738 31.9565 30.2984 31.581 29.8351 31.581H29.7718C30.5882 30.6784 31.0863 29.4828 31.0863 28.1727C31.0863 27.0706 30.7328 26.0501 30.1347 25.2163C31.4292 23.9038 33.5959 21.7168 34.6329 20.7091C34.7292 20.7459 34.8307 20.7649 34.9325 20.7649C35.1471 20.7649 35.3618 20.683 35.5256 20.5192C35.7087 20.3361 35.7892 20.0896 35.7676 19.8504C36.0406 19.745 36.3434 19.6923 36.6903 19.6923C38.07 19.6923 39.1923 20.8146 39.1923 22.1943V46.2199C39.1923 48.0185 40.6554 49.4816 42.4538 49.4816C44.2524 49.4816 45.7155 48.0185 45.7155 46.2199V33.5647H46.2553C46.7186 33.5647 47.094 33.1892 47.094 32.726V20.1549C47.0941 19.6917 46.7187 19.3161 46.2554 19.3161ZM7.66415 20.9936V31.8873H6.58445V20.9936H7.66415ZM26.0006 31.581C24.1212 31.581 22.5922 30.0521 22.5922 28.1727C22.5922 26.2933 24.1211 24.7643 26.0006 24.7643C27.88 24.7643 29.409 26.2932 29.409 28.1727C29.409 30.052 27.88 31.581 26.0006 31.581ZM28.3694 39.6341C30.41 40.5628 31.7284 42.6097 31.7284 44.8487V50.3226H20.2729V44.8488C20.2729 42.6682 21.5238 40.6701 23.4741 39.7094H25.3622C25.8253 39.7094 26.2009 39.3339 26.2009 38.8707C26.2009 38.4075 25.8255 38.032 25.3622 38.032H24.1232V33.2583H27.8783V38.8707C27.8781 39.1995 28.0702 39.498 28.3694 39.6341ZM44.337 31.8873V20.9936H45.4167V31.8873H44.337Z" fill="#7D0A0B"/>
</svg>
