<svg width="165" height="67" viewBox="0 0 165 67" fill="none" xmlns="http://www.w3.org/2000/svg">
<path d="M88.4258 5.9556L87.0082 4.50396L82.7553 0.149012L82.6765 0.0683594L80.7076 2.08454L71.0204 12.0042L69.0515 14.0203L66.61 16.5204L66.5312 16.6011L68.5002 18.6172L71.0204 16.0365L72.9893 18.0527L70.5479 20.5528L70.4691 20.6334L72.4381 22.6496L74.9583 20.0689L76.9272 22.0851L74.4857 24.5851L74.407 24.6658L76.3759 26.682L78.8962 24.1012L80.8651 26.1174L78.4236 28.6175L78.3449 28.6982L80.3138 30.7143L82.834 28.1336L85.2755 30.6337L85.3543 30.7143L87.3232 28.6982L84.803 26.1174L86.7719 24.1012L89.2134 26.6013L89.2922 26.682L91.2611 24.6658L88.7408 22.0851L90.7098 20.0689L93.1513 22.569L93.23 22.6496L95.199 20.6334L92.6787 18.0527L94.6476 16.0365L97.0891 18.5366L97.1679 18.6172L99.1368 16.6011L88.4258 5.9556ZM82.5978 11.9235L84.5667 13.9397L82.5978 15.9559L80.6288 13.9397L82.5978 11.9235ZM86.5356 11.9235L84.5667 9.90732L86.5356 7.89113L88.5046 9.90732L86.5356 11.9235ZM80.7076 9.90732L78.7387 11.9235L76.7697 9.90732L78.7387 7.89113L80.7076 9.90732ZM84.5667 5.9556L82.5978 7.97179L80.6288 5.9556L82.5978 3.93942L84.5667 5.9556ZM76.8485 13.8591L74.8795 15.8752L72.9106 13.8591L74.8795 11.8429L76.8485 13.8591ZM78.7387 15.8752L80.7076 17.8914L78.7387 19.9076L76.7697 17.8914L78.7387 15.8752ZM82.5978 19.8269L84.5667 21.8431L82.5978 23.8593L80.6288 21.8431L82.5978 19.8269ZM84.5667 17.8108L86.5356 15.7946L88.5046 17.8108L86.5356 19.8269L84.5667 17.8108ZM88.4258 13.8591L90.3948 11.8429L92.3637 13.8591L90.3948 15.8752L88.4258 13.8591Z" fill="#191919"/>
<path d="M26.6796 59.8277L22.4267 51.1178H20.8516V65.715H22.978L22.8993 56.5212L26.0496 62.973H27.2309L30.5387 56.3599L30.46 65.715H32.5864V51.1178H31.0113L26.6796 59.8277Z" fill="#191919"/>
<path d="M52.5907 57.2484H47.3139V51.1998H45.1875V65.797H47.3139V62.5711H52.5907V65.797H54.7172V51.1998H52.5907V57.2484ZM52.5907 60.5549H47.3139V59.1839H52.5907V60.5549Z" fill="#191919"/>
<path d="M72.2039 50.8766C69.4474 50.8766 67.2422 52.6508 67.2422 55.5541V61.4414C67.2422 64.3447 69.4474 66.1189 72.2039 66.1189C74.9604 66.1189 77.1656 64.3447 77.1656 61.4414V55.5541C77.1656 52.6508 74.9604 50.8766 72.2039 50.8766ZM69.3686 55.7961C69.3686 53.8605 70.6287 52.8121 72.2039 52.8121C73.2277 52.8121 74.1728 53.296 74.6454 54.1831L69.3686 59.5865V55.7961ZM75.0392 61.1188C75.0392 63.0543 73.779 64.1027 72.2039 64.1027C70.9438 64.1027 69.9199 63.4576 69.5261 62.1672L75.0392 56.5219V61.1188Z" fill="#191919"/>
<path d="M94.4871 50.8766C91.7306 50.8766 89.5254 52.6508 89.5254 55.5541V61.4414C89.5254 64.3447 91.7306 66.1189 94.4871 66.1189C97.2436 66.1189 99.4488 64.3447 99.4488 61.4414V55.5541C99.4488 52.6508 97.2436 50.8766 94.4871 50.8766ZM91.6519 55.7961C91.6519 53.8605 92.912 52.8121 94.4871 52.8121C95.511 52.8121 96.456 53.296 96.9286 54.1831L91.6519 59.5865V55.7961ZM97.3224 61.1188C97.3224 63.0543 96.0623 64.1027 94.4871 64.1027C93.227 64.1027 92.2031 63.4576 91.8094 62.1672L97.3224 56.5219V61.1188Z" fill="#191919"/>
<path d="M120.4 63.3776L116.934 57.6516L121.66 51.1998H119.14L114.099 58.2162V51.1998H111.973V65.797H114.099V61.6033L115.674 59.4259L118.194 63.7808C119.376 65.8776 120.321 66.1196 122.29 65.797V64.1034C121.739 64.2647 121.03 64.3453 120.4 63.3776Z" fill="#191919"/>
<path d="M136.466 51.1178L137.018 52.892L131.898 65.715H134.182L135.443 62.3278H140.168L141.271 65.715H143.633L138.514 51.1178H136.466ZM136.151 60.5535L138.042 55.5534L139.695 60.5535H136.151Z" fill="#191919"/>
<path d="M162.614 51.1178V57.1663H157.337V51.1178H155.211V65.715H157.337V62.4891H162.614V65.715H164.741V51.1178H162.614ZM162.614 60.5535H157.337V59.1825H162.614V60.5535Z" fill="#191919"/>
<path d="M5.88738 59.2628H8.25011V57.3273H5.88738V53.1336H8.6439V51.1174H0.453125V65.7146H8.72266V63.7791H5.80863V59.2628H5.88738ZM3.99721 63.7791H2.57957V59.2628H3.99721V63.7791ZM3.99721 57.3273H2.57957V53.1336H3.99721V57.3273Z" fill="#191919"/>
</svg>
