<svg width="49" height="49" viewBox="0 0 49 49" fill="none" xmlns="http://www.w3.org/2000/svg">
<g clip-path="url(#clip0)">
<path d="M30.7548 6.10552C25.365 3.38199 18.8724 4.42334 14.5991 8.69668C9.63262 13.6631 9.13553 21.5822 13.4429 27.1171C13.5952 27.3127 13.8228 27.4151 14.0529 27.4151C14.2186 27.4151 14.3856 27.362 14.5266 27.2522C14.8632 26.9903 14.9237 26.5052 14.6618 26.1686C10.8319 21.2473 11.2745 14.2055 15.6913 9.78866C19.4917 5.98809 25.2653 5.06187 30.0585 7.48384C30.439 7.67639 30.9035 7.52346 31.0959 7.14285C31.2882 6.76223 31.1356 6.29779 30.7548 6.10552Z" fill="#7D0A0B"/>
<path d="M36.9211 12.2729C36.7287 11.8923 36.2645 11.7396 35.8836 11.9317C35.503 12.124 35.3501 12.5883 35.5424 12.9692C37.9626 17.7616 37.0359 23.5344 33.2364 27.3338C28.8195 31.7505 21.7778 32.1931 16.8565 28.3633C16.5198 28.1015 16.0348 28.162 15.7729 28.4985C15.5109 28.835 15.5715 29.3202 15.9081 29.5821C18.4293 31.5442 21.445 32.5093 24.4511 32.5093C28.0445 32.5093 31.6243 31.1301 34.3286 28.4258C38.6009 24.1536 39.6427 17.6623 36.9211 12.2729Z" fill="#7D0A0B"/>
<path d="M34.9259 9.33185C34.7346 9.11537 34.5337 8.90157 34.3286 8.69657C34.1235 8.49148 33.9098 8.29051 33.6933 8.09919C33.3737 7.81668 32.8856 7.84692 32.6034 8.16647C32.3208 8.48593 32.3509 8.97392 32.6704 9.25634C32.8633 9.4267 33.0537 9.60585 33.2365 9.78855C33.4191 9.97134 33.5983 10.1617 33.7687 10.3545C33.9213 10.5272 34.1339 10.6153 34.3476 10.6153C34.5294 10.6153 34.7118 10.5515 34.8587 10.4217C35.1783 10.1394 35.2084 9.65141 34.9259 9.33185Z" fill="#7D0A0B"/>
<path d="M42.69 19.9455C43.2049 19.1008 43.2049 18.0515 42.6898 17.2069L41.6739 15.541C41.5401 15.3214 41.4883 15.0607 41.5284 14.8069L41.8312 12.883C41.9855 11.9025 41.5827 10.9309 40.7801 10.347L39.2057 9.20179C38.9976 9.05029 38.8496 8.82931 38.789 8.57914L38.3305 6.68431C38.0978 5.72183 37.3552 4.97936 36.3928 4.74642L34.4979 4.28781C34.2477 4.22723 34.0265 4.07927 33.8752 3.87112L32.7299 2.29632C32.1461 1.49375 31.1743 1.09074 30.1941 1.24521L28.2695 1.54801C28.0157 1.58792 27.7549 1.53624 27.5356 1.40245L25.8694 0.386271C25.0247 -0.128805 23.9754 -0.128709 23.1307 0.386271L21.4647 1.40216C21.2454 1.53605 20.9848 1.58754 20.7307 1.54773L18.8067 1.24492C17.8265 1.09065 16.8546 1.49346 16.2708 2.29603L15.1256 3.87045C14.9741 4.0786 14.7531 4.22656 14.5028 4.28714L12.608 4.74565C11.6457 4.9784 10.903 5.72096 10.6701 6.68336L10.2115 8.57828C10.1509 8.82845 10.003 9.04962 9.79476 9.20093L8.21996 10.3463C7.41739 10.93 7.01467 11.9016 7.16885 12.8821L7.47166 14.8067C7.51156 15.0606 7.45989 15.3213 7.32609 15.5407L6.31001 17.207C5.79513 18.0517 5.79513 19.101 6.31011 19.9455L7.326 21.6115C7.45979 21.8311 7.51156 22.0918 7.47156 22.3456L7.16876 24.2696C7.01439 25.25 7.4172 26.2218 8.21977 26.8056L9.79418 27.9507C10.0023 28.102 10.1503 28.3232 10.2109 28.5734L10.6694 30.4682C10.9021 31.4307 11.6447 32.1732 12.6071 32.4061L13.3984 32.5976L8.04339 44.5427C7.9296 44.7966 7.96108 45.092 8.12598 45.3161C8.29078 45.5402 8.56325 45.6584 8.83964 45.6253L13.1484 45.1101L15.6306 48.6695C15.7758 48.8776 16.0129 48.9999 16.2637 48.9999C16.2877 48.9999 16.3121 48.9988 16.3362 48.9966C16.6131 48.9705 16.8548 48.7974 16.9686 48.5437L22.4375 36.3435L23.1305 36.7661C23.5529 37.0236 24.0263 37.1523 24.4999 37.1523C24.9734 37.1523 25.4468 37.0235 25.8692 36.7661L26.5872 36.3283L32.063 48.5437C32.1768 48.7976 32.4184 48.9705 32.6954 48.9966C32.7196 48.9989 32.7438 49 32.7679 49C33.0187 49 33.2559 48.8777 33.401 48.6695L35.8832 45.1102L40.1919 45.6254C40.4681 45.6582 40.7408 45.5403 40.9056 45.3162C41.0704 45.0921 41.1021 44.7967 40.9882 44.5428L35.6304 32.5911L36.392 32.4069C37.3542 32.1741 38.0969 31.4316 38.3298 30.4692L38.7885 28.5742C38.849 28.3241 38.997 28.1029 39.2052 27.9516L40.7799 26.8062C41.5825 26.2225 41.9852 25.2509 41.8311 24.2705L41.5283 22.3458C41.4883 22.0919 41.54 21.8312 41.6738 21.6118L42.69 19.9455ZM16.1172 46.6675L14.1501 43.8468C13.987 43.6129 13.7082 43.4877 13.4251 43.5218L10.0105 43.93L14.8893 33.0464C14.9785 33.1119 15.0585 33.1905 15.1245 33.2813L16.2699 34.8561C16.3787 35.0057 16.501 35.1413 16.6343 35.2621L14.0663 40.9906C13.8919 41.3798 14.0659 41.8366 14.455 42.0111C14.5576 42.0571 14.6649 42.0788 14.7704 42.0788C15.0653 42.0788 15.3471 41.9089 15.4754 41.6223L18.0343 35.9142C18.2861 35.9488 18.5454 35.9482 18.8056 35.9072L20.7302 35.6044C20.8454 35.5863 20.9619 35.588 21.0753 35.6067L16.1172 46.6675ZM39.0213 43.9298L35.6066 43.5218C35.3232 43.4878 35.0446 43.6129 34.8816 43.8468L32.9145 46.6675L27.9543 35.6024C28.0583 35.5882 28.1644 35.5882 28.2694 35.6047L30.1933 35.9075C30.4641 35.9501 30.7339 35.9488 30.9952 35.9098L33.5561 41.6225C33.6846 41.9092 33.9662 42.079 34.2611 42.079C34.3667 42.079 34.474 42.0573 34.5765 42.0113C34.9656 41.8369 35.1397 41.3799 34.9652 40.9908L32.3874 35.2405C32.5118 35.125 32.6267 34.9973 32.7292 34.8564L33.8744 33.282C33.9465 33.1827 34.035 33.0977 34.1343 33.0289L39.0213 43.9298ZM41.3713 19.1414L40.3552 20.8077C40.0313 21.3393 39.9059 21.9707 40.0026 22.5857L40.3055 24.5103C40.3691 24.915 40.2028 25.3161 39.8715 25.5571L38.2966 26.7026C37.7926 27.0693 37.4341 27.605 37.2874 28.2109L36.8288 30.1058C36.7327 30.503 36.4262 30.8096 36.0289 30.9058L34.1339 31.3643C33.5279 31.5109 32.9922 31.8694 32.6255 32.3736L31.4803 33.948C31.2393 34.2794 30.8383 34.4455 30.4334 34.3818L28.5094 34.079C27.8943 33.9822 27.2627 34.1074 26.7311 34.4316L25.0652 35.4475C24.7165 35.6599 24.2832 35.6599 23.9347 35.4475L22.2684 34.4315C21.854 34.1787 21.379 34.047 20.8983 34.047C20.7624 34.047 20.6258 34.0576 20.4904 34.0789L18.5657 34.3817C18.1609 34.4454 17.7599 34.279 17.5189 33.9478L16.3734 32.373C16.0067 31.8689 15.471 31.5104 14.8651 31.3638L12.9702 30.9052C12.5729 30.809 12.2664 30.5026 12.1702 30.1052L11.7117 28.2104C11.5651 27.6044 11.2067 27.0685 10.7024 26.7018L9.12809 25.5565C8.79676 25.3155 8.63053 24.9144 8.69427 24.5096L8.99707 22.5856C9.09383 21.9705 8.96865 21.3391 8.6445 20.8074L7.62861 19.1413C7.41605 18.7927 7.41605 18.3594 7.62861 18.0109L8.64469 16.3446C8.96874 15.8131 9.09402 15.1816 8.99726 14.5666L8.69446 12.642C8.63082 12.2373 8.79715 11.8362 9.12838 11.5952L10.7033 10.4498C11.2073 10.083 11.5658 9.54737 11.7125 8.94148L12.1711 7.04655C12.2673 6.64929 12.5737 6.34275 12.9711 6.24657L14.866 5.78805C15.472 5.64144 16.0077 5.28293 16.3744 4.77877L17.5195 3.20435C17.7605 2.87303 18.1615 2.7066 18.5664 2.77043L20.4905 3.07324C21.1056 3.17018 21.7372 3.04481 22.2687 2.72067L23.9346 1.70478C24.2833 1.49231 24.7166 1.49231 25.0651 1.70478L26.7314 2.72076C27.2629 3.045 27.8946 3.17028 28.5094 3.07343L30.4341 2.77062C30.8388 2.70717 31.24 2.87331 31.4809 3.20454L32.6264 4.77934C32.9931 5.28341 33.5288 5.64191 34.1347 5.78853L36.0296 6.24714C36.4269 6.34332 36.7334 6.64977 36.8296 7.04713L37.2881 8.94195C37.4347 9.54795 37.7931 10.0838 38.2974 10.4505L39.8718 11.5957C40.2031 11.8367 40.3694 12.2379 40.3056 12.6426L40.0028 14.5666C39.9061 15.1817 40.0313 15.8132 40.3554 16.3448L41.3713 18.0109C41.584 18.3595 41.584 18.7928 41.3713 19.1414Z" fill="#7D0A0B"/>
<path d="M33.536 16.1735C33.3658 15.6497 32.9203 15.2839 32.3733 15.219L27.7268 14.668L25.767 10.4193C25.5363 9.91915 25.0507 9.6084 24.4999 9.6084C23.9491 9.6084 23.4635 9.91915 23.2328 10.4193L21.273 14.6681L16.6265 15.2191C16.0794 15.284 15.6338 15.6498 15.4638 16.1736C15.2936 16.6972 15.4391 17.2551 15.8433 17.629L19.2786 20.8059L18.3667 25.3952C18.2594 25.9356 18.4696 26.4723 18.9153 26.7959C19.1612 26.9745 19.4465 27.065 19.7336 27.065C19.967 27.065 20.2015 27.0052 20.4169 26.8847L24.4998 24.5994L28.5827 26.8847C29.0634 27.1538 29.6387 27.1198 30.0844 26.796C30.5301 26.4723 30.7402 25.9355 30.6328 25.3952L29.721 20.806L33.1562 17.6291C33.5607 17.2552 33.7062 16.6974 33.536 16.1735ZM28.3552 19.9656C28.158 20.1479 28.0698 20.4196 28.1221 20.683L29.0552 25.3793L24.8769 23.0405C24.7598 22.975 24.6298 22.9422 24.4998 22.9422C24.3697 22.9422 24.2399 22.9749 24.1226 23.0405L19.9444 25.3793L20.8775 20.683C20.9299 20.4195 20.8416 20.1479 20.6444 19.9656L17.129 16.7146L21.8841 16.1508C22.1507 16.1192 22.3819 15.9512 22.4944 15.7075L24.4999 11.3596L26.5053 15.7075C26.6179 15.9512 26.8489 16.1192 27.1156 16.1508L31.8706 16.7146L28.3552 19.9656Z" fill="#7D0A0B"/>
</g>
<defs>
<clipPath id="clip0">
<rect width="49" height="49" fill="white"/>
</clipPath>
</defs>
</svg>
