<svg width="38" height="38" viewBox="0 0 38 38" fill="none" xmlns="http://www.w3.org/2000/svg">
<path fill-rule="evenodd" clip-rule="evenodd" d="M36.7333 9.5C36.0341 9.5 35.4667 10.0308 35.4667 10.6875V27.3125C35.4667 27.9692 36.0341 28.5 36.7333 28.5C37.4325 28.5 38 27.9692 38 27.3125V10.6875C38 10.0308 37.4325 9.5 36.7333 9.5ZM11.4 9.5C10.7008 9.5 10.1333 10.0308 10.1333 10.6875V27.3125C10.1333 27.9692 10.7008 28.5 11.4 28.5C12.0992 28.5 12.6667 27.9692 12.6667 27.3125V10.6875C12.6667 10.0308 12.0992 9.5 11.4 9.5ZM1.26667 14.25C0.567467 14.25 0 14.7808 0 15.4375V22.5625C0 23.2192 0.567467 23.75 1.26667 23.75C1.96587 23.75 2.53333 23.2192 2.53333 22.5625V15.4375C2.53333 14.7808 1.96587 14.25 1.26667 14.25ZM31.6667 4.75C30.9675 4.75 30.4 5.28081 30.4 5.9375V32.0625C30.4 32.7192 30.9675 33.25 31.6667 33.25C32.3659 33.25 32.9333 32.7192 32.9333 32.0625V5.9375C32.9333 5.28081 32.3659 4.75 31.6667 4.75ZM21.5333 4.75C20.8341 4.75 20.2667 5.28081 20.2667 5.9375V32.0625C20.2667 32.7192 20.8341 33.25 21.5333 33.25C22.2325 33.25 22.8 32.7192 22.8 32.0625V5.9375C22.8 5.28081 22.2325 4.75 21.5333 4.75ZM6.33333 4.75C5.63413 4.75 5.06667 5.28081 5.06667 5.9375V32.0625C5.06667 32.7192 5.63413 33.25 6.33333 33.25C7.03253 33.25 7.6 32.7192 7.6 32.0625V5.9375C7.6 5.28081 7.03253 4.75 6.33333 4.75ZM26.6 0C25.9008 0 25.3333 0.530813 25.3333 1.1875V36.8125C25.3333 37.4692 25.9008 38 26.6 38C27.2992 38 27.8667 37.4692 27.8667 36.8125V1.1875C27.8667 0.530813 27.2992 0 26.6 0ZM16.4667 0C15.7675 0 15.2 0.530813 15.2 1.1875V36.8125C15.2 37.4692 15.7675 38 16.4667 38C17.1659 38 17.7333 37.4692 17.7333 36.8125V1.1875C17.7333 0.530813 17.1659 0 16.4667 0Z" fill="#E9EBFB"/>
</svg>
