<svg width="23" height="22" viewBox="0 0 23 22" fill="none" xmlns="http://www.w3.org/2000/svg">
<path d="M11.0076 0C6.73994 0 3.26789 3.46964 3.26789 7.73438C3.26789 9.17529 3.66731 10.5815 4.42322 11.8015L10.5671 21.6953C10.6848 21.8848 10.8921 22 11.1151 22C11.1168 22 11.1185 22 11.1202 22C11.3451 21.9982 11.5529 21.8795 11.6684 21.6867L17.6557 11.697C18.3699 10.5028 18.7474 9.13253 18.7474 7.73438C18.7474 3.46964 15.2753 0 11.0076 0ZM16.5487 11.0351L11.1053 20.1174L5.5196 11.1223C4.8904 10.1069 4.54925 8.93535 4.54925 7.73438C4.54925 4.18043 7.45123 1.28047 11.0076 1.28047C14.5641 1.28047 17.4617 4.18043 17.4617 7.73438C17.4617 8.89973 17.1431 10.0413 16.5487 11.0351Z" fill="white"/>
<path d="M11.0076 3.86719C8.87372 3.86719 7.1377 5.60201 7.1377 7.73438C7.1377 9.85312 8.84547 11.6016 11.0076 11.6016C13.1963 11.6016 14.8774 9.82983 14.8774 7.73438C14.8774 5.60201 13.1414 3.86719 11.0076 3.86719ZM11.0076 10.3211C9.57756 10.3211 8.41905 9.15952 8.41905 7.73438C8.41905 6.3128 9.585 5.14766 11.0076 5.14766C12.4301 5.14766 13.5918 6.3128 13.5918 7.73438C13.5918 9.13872 12.4602 10.3211 11.0076 10.3211Z" fill="white"/>
</svg>
