<svg width="52" height="52" viewBox="0 0 52 52" fill="none" xmlns="http://www.w3.org/2000/svg">
<path d="M47.5466 16.0325H45.3571V14.6245L46.7232 13.12C47.4324 12.3389 47.8229 11.3279 47.8229 10.2729V6.70485C47.8229 4.20997 45.7931 2.18024 43.2982 2.18024H41.217C38.7221 2.18024 36.6924 4.21007 36.6924 6.70485V10.2729C36.6924 11.3279 37.083 12.339 37.792 13.12L39.1583 14.6247V16.0325H36.9688C34.8417 16.0325 33.059 17.5319 32.6198 19.5293C32.3963 19.498 32.1684 19.4807 31.9364 19.4807H29.3717V17.7584L30.9362 16.0356C31.7183 15.1742 32.1492 14.0589 32.1492 12.8953V8.87657C32.1492 6.12097 29.9074 3.87938 27.1519 3.87938C26.72 3.87938 26.3701 4.22926 26.3701 4.66111C26.3701 5.09295 26.72 5.44284 27.1519 5.44284C29.0453 5.44284 30.5857 6.98314 30.5857 8.87657V12.8952C30.5857 13.6694 30.2991 14.4113 29.7788 14.9844L28.1678 16.7586C27.9517 16.8977 27.8085 17.1403 27.8085 17.4166V20.2626C27.8085 20.6944 28.1584 21.0443 28.5902 21.0443H31.9366C33.7857 21.0443 35.2903 22.5487 35.2903 24.398V29.3033H16.6695V24.398C16.6695 22.9562 17.5842 21.7243 18.8634 21.2512C18.9236 21.2386 18.9809 21.2186 19.035 21.193C19.3475 21.0965 19.6794 21.0442 20.0231 21.0442H23.3695C23.8012 21.0442 24.1512 20.6943 24.1512 20.2625V17.4165C24.1512 17.1403 24.008 16.8976 23.7919 16.7585L22.1809 14.9843C21.6605 14.4112 21.3738 13.6692 21.3738 12.8951V8.87657C21.3738 6.98324 22.9141 5.44284 24.8076 5.44284C25.2393 5.44284 25.5893 5.09295 25.5893 4.66111C25.5893 4.22926 25.2393 3.87938 24.8076 3.87938C22.052 3.87938 19.8103 6.12107 19.8103 8.87657V12.8952C19.8103 14.0587 20.2411 15.174 21.0233 16.0355L22.5875 17.7582V19.4806H20.0229C19.8044 19.4806 19.5897 19.4964 19.3788 19.5242C18.9378 17.5294 17.1565 16.0325 15.0311 16.0325H12.8416V14.6245L14.2077 13.12C14.9169 12.3389 15.3074 11.3279 15.3074 10.2729V6.70485C15.3074 4.20997 13.2776 2.18024 10.7827 2.18024H8.70169C6.2068 2.18024 4.17707 4.21007 4.17707 6.70485V10.2729C4.17707 11.3279 4.56758 12.339 5.27679 13.12L6.64301 14.6246V16.0325H4.45352C1.99784 16.0325 0 18.0303 0 20.486V25.5353C0 25.9671 0.349985 26.317 0.781728 26.317H12.9447C13.3764 26.317 13.7264 25.9671 13.7264 25.5353C13.7264 25.1034 13.3764 24.7536 12.9447 24.7536H1.56346V20.486C1.56346 18.8925 2.8599 17.5959 4.45352 17.5959H7.42474C7.85648 17.5959 8.20647 17.246 8.20647 16.8142V14.2873C8.20647 14.0154 8.06763 13.776 7.85699 13.6359L6.4342 12.069C5.98682 11.5763 5.74043 10.9385 5.74043 10.273V6.70485C5.74043 5.07203 7.06876 3.74369 8.70159 3.74369H10.7828C12.4156 3.74369 13.7441 5.07203 13.7441 6.70485V10.2729C13.7441 10.9384 13.4977 11.5763 13.0503 12.0689L11.6274 13.6359C11.4169 13.776 11.2781 14.0154 11.2781 14.2872V16.8141C11.2781 17.2459 11.6281 17.5958 12.0599 17.5958H15.0311C16.4504 17.5958 17.6332 18.6246 17.875 19.9754C16.2371 20.7741 15.1059 22.456 15.1059 24.3977V30.0847C15.1059 30.5165 15.4559 30.8664 15.8877 30.8664H36.0718C36.5037 30.8664 36.8535 30.5165 36.8535 30.0847V24.3977C36.8535 22.4709 35.7391 20.8004 34.1214 19.9944C34.3555 18.6343 35.5428 17.5958 36.9688 17.5958H39.94C40.3719 17.5958 40.7218 17.2459 40.7218 16.8141V14.2872C40.7218 14.0152 40.5829 13.7758 40.3722 13.6357L38.9495 12.0689C38.5021 11.5763 38.2558 10.9384 38.2558 10.2729V6.70485C38.2558 5.07203 39.5842 3.74369 41.217 3.74369H43.2982C44.931 3.74369 46.2595 5.07203 46.2595 6.70485V10.2729C46.2595 10.9384 46.0131 11.5763 45.5657 12.0689L44.1429 13.6359C43.9323 13.776 43.7935 14.0154 43.7935 14.2872V16.8141C43.7935 17.2459 44.1434 17.5958 44.5753 17.5958H47.5465C49.14 17.5958 50.4365 18.8923 50.4365 20.4859V24.7535H39.1898C38.758 24.7535 38.4081 25.1033 38.4081 25.5352C38.4081 25.967 38.758 26.3169 39.1898 26.3169H51.2183C51.6501 26.3169 52 25.967 52 25.5352V20.4859C52.0001 18.0303 50.0023 16.0325 47.5466 16.0325Z" fill="#7D0A0B"/>
<path d="M33.8616 40.7737C33.7714 40.4956 33.5335 40.2911 33.2448 40.2437L28.9745 39.5427L26.9883 35.698C26.8541 35.4383 26.5862 35.275 26.2938 35.275C26.0014 35.275 25.7334 35.4381 25.5993 35.698L23.613 39.5427L19.3427 40.2437C19.0542 40.2911 18.8162 40.4955 18.7258 40.7737C18.6354 41.0517 18.7078 41.3569 18.9134 41.5649L21.956 44.642L21.3031 48.9198C21.259 49.2089 21.3798 49.4984 21.6164 49.6702C21.7525 49.7691 21.9138 49.8196 22.076 49.8196C22.1956 49.8196 22.3159 49.792 22.4268 49.7363L26.2936 47.7934L30.1604 49.7363C30.4217 49.8676 30.7344 49.8422 30.9707 49.6702C31.2074 49.4984 31.3281 49.2089 31.2841 48.9198L30.631 44.642L33.6736 41.5649C33.8797 41.3569 33.952 41.0517 33.8616 40.7737ZM29.2436 43.8219C29.0698 43.9977 28.9894 44.2453 29.0266 44.4894L29.5106 47.6596L26.6449 46.2199C26.424 46.109 26.1638 46.109 25.943 46.2199L23.0773 47.6596L23.5611 44.4894C23.5984 44.2451 23.518 43.9975 23.3442 43.8219L21.0891 41.5414L24.2538 41.022C24.4976 40.9819 24.7083 40.8288 24.8216 40.6093L26.2937 37.76L27.7656 40.6093C27.8791 40.8288 28.0896 40.9819 28.3335 41.022L31.4981 41.5414L29.2436 43.8219Z" fill="#7D0A0B"/>
<path d="M50.9733 35.026C50.8829 34.7479 50.6452 34.5435 50.3568 34.496L46.0864 33.795L44.1001 29.9503C43.9659 29.6906 43.698 29.5273 43.4056 29.5273C43.1131 29.5273 42.8453 29.6904 42.7111 29.9503L40.7249 33.795L36.4544 34.496C36.1659 34.5435 35.9279 34.7478 35.8376 35.026C35.7472 35.3041 35.8195 35.6094 36.0251 35.8173L39.0679 38.8943L38.4148 43.1722C38.3707 43.4613 38.4915 43.7508 38.7281 43.9226C38.9648 44.0944 39.2774 44.1201 39.5385 43.9887L43.4053 42.0458L47.2721 43.9887C47.383 44.0445 47.5032 44.072 47.6229 44.072C47.7852 44.072 47.9465 44.0216 48.0825 43.9226C48.3191 43.7508 48.4399 43.4613 48.3958 43.1722L47.7427 38.8943L50.7854 35.8173C50.9914 35.6094 51.0637 35.3041 50.9733 35.026ZM46.3553 38.0743C46.1815 38.25 46.1012 38.4977 46.1383 38.7419L46.6223 41.9121L43.7566 40.4724C43.6461 40.4169 43.526 40.3891 43.4056 40.3891C43.2853 40.3891 43.165 40.4169 43.0546 40.4724L40.1889 41.9121L40.6729 38.7419C40.71 38.4975 40.6297 38.2499 40.4559 38.0743L38.2009 35.7939L41.3656 35.2745C41.6096 35.2344 41.8201 35.0813 41.9334 34.8619L43.4054 32.0125L44.8774 34.8619C44.9909 35.0813 45.2014 35.2344 45.4453 35.2745L48.6099 35.7939L46.3553 38.0743Z" fill="#7D0A0B"/>
<path d="M16.7499 35.0261C16.6596 34.7479 16.4215 34.5435 16.133 34.496L11.8627 33.795L9.8764 29.9503C9.74213 29.6906 9.47431 29.5273 9.18181 29.5273C8.88931 29.5273 8.62149 29.6904 8.48722 29.9503L6.50116 33.7952L2.23086 34.4961C1.94232 34.5436 1.70436 34.7479 1.61397 35.0261C1.52358 35.3042 1.59599 35.6095 1.80155 35.8174L4.84427 38.8944L4.19132 43.1723C4.14725 43.4614 4.268 43.7509 4.50465 43.9227C4.74118 44.0945 5.05379 44.1202 5.31501 43.9888L9.18181 42.0459L13.0485 43.9888C13.1594 44.0446 13.2797 44.0721 13.3993 44.0721C13.5615 44.0721 13.7229 44.0217 13.8589 43.9227C14.0955 43.7509 14.2163 43.4614 14.1722 43.1723L13.5192 38.8944L16.5619 35.8174C16.7677 35.6094 16.8402 35.3042 16.7499 35.0261ZM12.1316 38.0743C11.9578 38.25 11.8774 38.4977 11.9147 38.7419L12.3985 41.9121L9.53291 40.4724C9.42251 40.4168 9.30226 40.3891 9.18191 40.3891C9.06156 40.3891 8.94131 40.4169 8.83091 40.4724L5.96522 41.9121L6.44916 38.7419C6.48644 38.4975 6.406 38.2499 6.23223 38.0743L3.97753 35.7939L7.14223 35.2745C7.38608 35.2344 7.59672 35.0813 7.71017 34.8619L9.18212 32.0125L10.6541 34.8619C10.7675 35.0813 10.9781 35.2344 11.222 35.2745L14.3867 35.7939L12.1316 38.0743Z" fill="#7D0A0B"/>
</svg>
