<svg width="52" height="52" viewBox="0 0 52 52" fill="none" xmlns="http://www.w3.org/2000/svg">
<g clip-path="url(#clip0)">
<path d="M39.8457 22.9603C39.8457 21.3141 38.5065 19.975 36.8603 19.975H31.3737C32.7067 18.4767 33.5779 16.7705 33.7462 15.2399C33.8489 14.305 33.5601 13.377 32.9535 12.6938C32.399 12.0693 31.6409 11.7212 30.8186 11.7136C30.8091 11.7135 30.7995 11.7135 30.7901 11.7135C29.9947 11.7135 29.2483 12.0198 28.6849 12.578C28.1214 13.1363 27.8096 13.88 27.806 14.6737C27.777 14.8475 27.4713 15.4466 26.7233 16.158C26.1109 16.7405 25.053 17.5414 23.4911 18.0485C22.8787 18.2473 22.319 18.6135 21.8276 19.1367C21.5697 19.4111 21.1836 19.7902 20.7055 20.1706C20.4709 20.0463 20.2041 19.9752 19.9207 19.9752H14.7098C13.7819 19.9752 13.0271 20.73 13.0271 21.6579V35.5535C13.0271 36.4814 13.7819 37.2362 14.7098 37.2362H19.9207C20.5532 37.2362 21.1048 36.885 21.3922 36.3677H34.6891C36.0958 36.3677 37.2402 35.2233 37.2402 33.8166C37.2402 33.3436 37.1109 32.9004 36.8857 32.5201C37.6186 32.0714 38.1087 31.2632 38.1087 30.3426C38.1087 29.8696 37.9794 29.4264 37.7541 29.0462C38.4871 28.5975 38.9771 27.7892 38.9771 26.8687C38.9771 26.3363 38.8132 25.8415 38.5332 25.432C39.3247 24.8944 39.8457 23.987 39.8457 22.9603ZM36.8603 24.3173H36.426C35.9764 24.3173 35.6118 24.6818 35.6118 25.1315C35.6118 25.5812 35.9763 25.9458 36.426 25.9458C36.9348 25.9458 37.3488 26.3597 37.3488 26.8686C37.3488 27.3774 36.9348 27.7914 36.426 27.7914H35.5575C35.1079 27.7914 34.7433 28.1559 34.7433 28.6056C34.7433 29.0552 35.1078 29.4198 35.5575 29.4198C36.0663 29.4198 36.4803 29.8338 36.4803 30.3426C36.4803 30.8514 36.0663 31.2654 35.5575 31.2654H34.6891C34.2394 31.2654 33.8748 31.6299 33.8748 32.0796C33.8748 32.5293 34.2393 32.8939 34.6891 32.8939C35.1979 32.8939 35.6119 33.3078 35.6119 33.8167C35.6119 34.3255 35.1979 34.7395 34.6891 34.7395H21.6033V26.8689C21.6033 26.4193 21.2388 26.0546 20.7891 26.0546C20.3394 26.0546 19.9749 26.4192 19.9749 26.8689V35.5536C19.9749 35.5835 19.9506 35.6078 19.9207 35.6078H14.7098C14.6798 35.6078 14.6556 35.5835 14.6556 35.5536V21.6576C14.6556 21.6276 14.6798 21.6034 14.7098 21.6034H19.9207C19.9506 21.6034 19.9749 21.6276 19.9749 21.6576V23.3946C19.9749 23.8442 20.3394 24.2088 20.7891 24.2088C21.2388 24.2088 21.6033 23.8443 21.6033 23.3946V21.6576C21.6033 21.6181 21.6001 21.5794 21.5973 21.5406C22.2078 21.068 22.6961 20.5903 23.0146 20.2513C23.3159 19.9302 23.6454 19.7102 23.9938 19.5972C25.9103 18.975 27.2 17.9732 27.9444 17.2424C28.8773 16.3264 29.4342 15.3715 29.4342 14.6879C29.4342 14.3267 29.5751 13.9882 29.8309 13.7347C30.0899 13.478 30.4329 13.3425 30.8035 13.342C31.2599 13.3462 31.5622 13.5797 31.7355 13.7749C32.0327 14.1096 32.1789 14.5908 32.1272 15.0619C31.9494 16.6797 30.6556 18.6795 28.8311 20.1564C28.5631 20.3734 28.4608 20.7358 28.5759 21.0609C28.691 21.386 28.9985 21.6034 29.3434 21.6034H36.8601C37.6084 21.6034 38.217 22.212 38.217 22.9603C38.217 23.7086 37.6085 24.3173 36.8603 24.3173Z" fill="#7D0A0B"/>
<path d="M17.3153 32.1248C16.8656 32.1248 16.4968 32.4937 16.4968 32.9433C16.4968 33.3929 16.8656 33.7618 17.3153 33.7618C17.7649 33.7618 18.1338 33.3929 18.1338 32.9433C18.1339 32.4938 17.765 32.1248 17.3153 32.1248Z" fill="#7D0A0B"/>
<path d="M50.5484 26.0003L51.9471 22.2991C52.049 22.0298 52.0009 21.7269 51.8209 21.5021L49.3469 18.4142L49.5334 14.4619C49.547 14.1745 49.4076 13.901 49.1671 13.7431L45.8601 11.5707L44.8162 7.75422C44.7402 7.47655 44.5233 7.25961 44.2457 7.18374L40.4292 6.13988L38.2569 2.83291C38.0989 2.5923 37.8255 2.45357 37.538 2.46667L33.5857 2.65314L30.4978 0.17918C30.2732 -0.000788961 29.9702 -0.048828 29.7009 0.0529376L25.9996 1.45166L22.2986 0.0530392C22.0291 -0.048828 21.7263 -0.000788973 21.5016 0.179281L18.4137 2.65324L14.4614 2.46677C14.1726 2.45316 13.9005 2.59251 13.7426 2.83301L11.5703 6.14009L7.75382 7.18395C7.47615 7.25991 7.25921 7.47685 7.18334 7.75442L6.13948 11.5709L2.83241 13.7432C2.5918 13.9012 2.45256 14.1746 2.46617 14.462L2.65264 18.4143L0.178679 21.5022C-0.00128977 21.7269 -0.0493288 22.0298 0.0524368 22.2992L1.45105 26.0003L0.0523352 29.7015C-0.049532 29.9707 -0.00149289 30.2737 0.178577 30.4984L2.65254 33.5863L2.46607 37.5386C2.45246 37.8261 2.5918 38.0996 2.8323 38.2575L6.13938 40.4298L7.18324 44.2463C7.25921 44.524 7.47615 44.7409 7.75372 44.8168L11.5702 45.8607L13.7425 49.1678C13.9005 49.4084 14.1744 49.5467 14.4613 49.534L18.4136 49.3475L21.5015 51.8215C21.7262 52.0016 22.0292 52.0496 22.2985 51.9477L25.9997 50.549L29.701 51.9477C29.7944 51.983 29.8918 52.0002 29.9887 52.0002C30.1711 52.0002 30.3512 51.939 30.4978 51.8215L33.5857 49.3475L37.538 49.534C37.8264 49.5468 38.0989 49.4083 38.2569 49.1678L40.4292 45.8607L44.2457 44.8168C44.5234 44.7408 44.7403 44.5239 44.8162 44.2463L45.8601 40.4298L49.1671 38.2575C49.4078 38.0995 49.547 37.8261 49.5334 37.5386L49.3469 33.5863L51.8209 30.4984C52.0008 30.2738 52.0489 29.9708 51.9471 29.7015L50.5484 26.0003ZM48.9164 26.2882L50.2597 29.8427L47.8837 32.8083C47.7597 32.963 47.6964 33.1576 47.7058 33.3557L47.8849 37.1514L44.709 39.2376C44.5433 39.3464 44.4229 39.512 44.3706 39.7033L43.368 43.3686L39.7027 44.3712C39.5115 44.4235 39.346 44.5438 39.237 44.7096L37.1508 47.8855L33.3551 47.7064C33.1569 47.6972 32.9623 47.7603 32.8077 47.8843L29.8421 50.2603L26.2876 48.917C26.1948 48.882 26.0972 48.8645 25.9997 48.8645C25.9022 48.8645 25.8046 48.8821 25.7119 48.917L22.1573 50.2603L19.1918 47.8843C19.0371 47.7603 18.8421 47.6972 18.6444 47.7064L14.8487 47.8855L12.7625 44.7096C12.6537 44.5439 12.4881 44.4235 12.2967 44.3712L8.63142 43.3686L7.6289 39.7033C7.57659 39.5121 7.45624 39.3466 7.29049 39.2376L4.11453 37.1514L4.29369 33.3557C4.30303 33.1575 4.23976 32.963 4.11575 32.8083L1.7398 29.8427L3.08316 26.2882C3.15324 26.1027 3.15324 25.898 3.08316 25.7125L1.7398 22.1579L4.11575 19.1924C4.23976 19.0377 4.30303 18.843 4.29369 18.645L4.11453 14.8493L7.29049 12.7631C7.45614 12.6543 7.57659 12.4887 7.6289 12.2973L8.63142 8.63202L12.2967 7.6295C12.488 7.5772 12.6535 7.45684 12.7625 7.29109L14.8487 4.11513L18.6444 4.29429C18.8422 4.30353 19.0371 4.24036 19.1918 4.11635L22.1573 1.7404L25.7119 3.08377C25.8975 3.15384 26.1021 3.15384 26.2876 3.08377L29.8421 1.7404L32.8077 4.11635C32.9623 4.24046 33.1571 4.30363 33.3551 4.29429L37.1508 4.11513L39.237 7.29109C39.3458 7.45674 39.5114 7.5772 39.7027 7.6295L43.368 8.63202L44.3706 12.2973C44.4229 12.4886 44.5432 12.6541 44.709 12.7631L47.8849 14.8493L47.7058 18.645C47.6964 18.8431 47.7597 19.0377 47.8837 19.1924L50.2597 22.1579L48.9163 25.7125C48.8463 25.8981 48.8463 26.1027 48.9164 26.2882Z" fill="#7D0A0B"/>
<path d="M41.2987 11.9411C41.096 11.7205 40.8859 11.5011 40.6737 11.2891C40.4616 11.077 40.2423 10.8668 40.0217 10.6641C39.6905 10.3601 39.1755 10.382 38.8713 10.7133C38.5672 11.0445 38.5892 11.5596 38.9205 11.8637C39.1239 12.0506 39.3264 12.2446 39.5222 12.4404C39.7179 12.6361 39.912 12.8387 40.099 13.0422C40.2596 13.2171 40.479 13.3058 40.699 13.3058C40.8958 13.3058 41.0931 13.2349 41.2494 13.0914C41.5807 12.7874 41.6027 12.2723 41.2987 11.9411Z" fill="#7D0A0B"/>
<path d="M37.1304 8.4424C33.204 5.94091 28.4767 4.82921 23.8197 5.31133C19.0945 5.80086 14.639 7.92372 11.2736 11.289C7.56994 14.9927 5.41356 19.9128 5.2017 25.1429C4.99116 30.3423 6.71326 35.3904 10.0509 39.357C10.2119 39.5484 10.4422 39.647 10.6744 39.647C10.8594 39.647 11.0455 39.5842 11.1982 39.4558C11.5421 39.1663 11.5864 38.6527 11.297 38.3087C8.22156 34.6535 6.63475 30.0014 6.82873 25.2089C7.02394 20.3886 9.01131 15.854 12.4249 12.4405C15.5266 9.33869 19.633 7.38208 23.9874 6.93105C28.281 6.4862 32.6376 7.51087 36.2554 9.81573C36.6347 10.0573 37.1378 9.94583 37.3794 9.56659C37.6212 9.18726 37.5095 8.68401 37.1304 8.4424Z" fill="#7D0A0B"/>
<path d="M43.5207 14.8326C43.279 14.4532 42.7755 14.3417 42.3965 14.5833C42.0171 14.8249 41.9057 15.3283 42.1473 15.7074C44.4522 19.3253 45.4767 23.6821 45.032 27.9754C44.581 32.3297 42.6244 36.436 39.5226 39.5379C36.109 42.9515 31.5745 44.9389 26.7542 45.1341C21.9626 45.3289 17.3095 43.7414 13.6545 40.6661C13.3105 40.3765 12.7969 40.4208 12.5073 40.7649C12.2178 41.1089 12.2621 41.6225 12.6062 41.9121C16.3559 45.0671 21.0715 46.7786 25.9683 46.7785C26.2516 46.7785 26.536 46.7727 26.8203 46.7613C32.0505 46.5495 36.9705 44.3931 40.6743 40.6895C44.0396 37.3241 46.1626 32.8684 46.6519 28.1432C47.1342 23.486 46.0221 18.7589 43.5207 14.8326Z" fill="#7D0A0B"/>
</g>
<defs>
<clipPath id="clip0">
<rect width="52" height="52" fill="white"/>
</clipPath>
</defs>
</svg>
