<svg width="23" height="22" viewBox="0 0 23 22" fill="none" xmlns="http://www.w3.org/2000/svg">
<g clip-path="url(#clip0)">
<path d="M4.58756 14.6241C6.75898 17.218 9.37289 19.2603 12.3563 20.7053C13.4922 21.2433 15.0113 21.8815 16.7037 21.9909C16.8086 21.9954 16.909 22 17.0139 22C18.1498 22 19.0622 21.608 19.8057 20.8011C19.8103 20.7965 19.8194 20.7874 19.824 20.7783C20.0886 20.4592 20.3897 20.172 20.7044 19.8666C20.9188 19.6614 21.1378 19.4472 21.3476 19.2283C22.3193 18.2163 22.3193 16.9308 21.3385 15.9507L18.5969 13.2109C18.1316 12.7277 17.575 12.4724 16.9911 12.4724C16.4072 12.4724 15.8461 12.7277 15.3671 13.2064L13.734 14.8384C13.5834 14.7518 13.4283 14.6743 13.2824 14.6013C13.0999 14.5102 12.9311 14.4235 12.7806 14.3278C11.2934 13.3842 9.94312 12.1533 8.65213 10.5715C7.99979 9.74637 7.56186 9.05346 7.25621 8.34687C7.68502 7.95939 8.08646 7.55367 8.47422 7.15707C8.61107 7.01575 8.75249 6.87443 8.8939 6.73311C9.38658 6.24078 9.65116 5.67095 9.65116 5.092C9.65116 4.51305 9.39114 3.94322 8.8939 3.45089L7.53448 2.09242C7.37482 1.93286 7.22428 1.77787 7.06918 1.61832C6.7681 1.30833 6.45334 0.989225 6.14313 0.702031C5.67327 0.241608 5.12129 0 4.53738 0C3.95803 0 3.40149 0.241608 2.91337 0.706589L1.20726 2.41152C0.586853 3.0315 0.235594 3.78367 0.162605 4.65437C0.0759308 5.74389 0.27665 6.90178 0.796696 8.30128C1.59501 10.4666 2.79933 12.477 4.58756 14.6241ZM1.27569 4.7501C1.33043 4.1438 1.56308 3.6378 2.00101 3.20017L3.69801 1.50435C3.96259 1.24907 4.25455 1.11687 4.53738 1.11687C4.81565 1.11687 5.09848 1.24907 5.3585 1.51347C5.66414 1.7961 5.95154 2.09242 6.26174 2.40696C6.41684 2.56651 6.57651 2.72607 6.73617 2.89018L8.09559 4.24865C8.37842 4.53129 8.5244 4.81848 8.5244 5.10112C8.5244 5.38375 8.37842 5.67095 8.09559 5.95359C7.95417 6.0949 7.81275 6.24078 7.67134 6.3821C7.24709 6.81061 6.85021 7.21633 6.41228 7.60381C6.40316 7.61293 6.39859 7.61749 6.38947 7.62661C6.01084 8.00497 6.07014 8.36511 6.16138 8.63862C6.16594 8.6523 6.1705 8.66142 6.17507 8.67509C6.52633 9.51844 7.01444 10.3208 7.77626 11.2781C9.1448 12.9648 10.5863 14.2731 12.1738 15.2806C12.37 15.4082 12.5798 15.5085 12.776 15.6088C12.9585 15.7 13.1273 15.7866 13.2778 15.8823C13.296 15.8914 13.3097 15.9005 13.328 15.9097C13.4785 15.9872 13.6245 16.0236 13.7705 16.0236C14.1354 16.0236 14.3726 15.7911 14.4502 15.7136L16.1563 14.0087C16.4209 13.7443 16.7083 13.603 16.9911 13.603C17.3378 13.603 17.6206 13.8172 17.7985 14.0087L20.5493 16.753C21.0967 17.3 21.0922 17.8927 20.5356 18.4716C20.344 18.6768 20.1433 18.8728 19.9289 19.0779C19.6096 19.3879 19.2766 19.707 18.9755 20.0671C18.4509 20.6324 17.8259 20.8968 17.0185 20.8968C16.9409 20.8968 16.8588 20.8923 16.7813 20.8877C15.285 20.792 13.8936 20.2085 12.849 19.7116C10.0115 18.3394 7.5208 16.3929 5.4543 13.9221C3.75275 11.8753 2.60773 9.96975 1.85047 7.92748C1.38061 6.67385 1.2027 5.66639 1.27569 4.7501Z" fill="white"/>
</g>
<defs>
<clipPath id="clip0">
<rect width="22.0153" height="22" fill="white" transform="translate(0.101562)"/>
</clipPath>
</defs>
</svg>
