<svg width="38" height="38" viewBox="0 0 38 38" fill="none" xmlns="http://www.w3.org/2000/svg">
<path d="M27.5922 13.0899L29.8537 10.8284L28.2424 8.95331H24.3604L22.7491 10.8284L25.0105 13.0899C22.8168 13.3333 20.7312 14.193 19.0001 15.5767C17.2691 14.193 15.1834 13.3333 12.9898 13.0899L15.2512 10.8284L13.6399 8.95331H9.75791L8.14662 10.8284L10.4081 13.0899C4.5623 13.7345 0 18.7026 0 24.717C0 31.1676 5.24801 36.4157 11.6987 36.4157C14.3583 36.4157 16.9321 35.5103 19 33.8573C21.0679 35.5103 23.6418 36.4157 26.3013 36.4157C32.752 36.4157 38 31.1676 38 24.717C38 18.7026 33.4377 13.7345 27.5922 13.0899ZM24.2871 10.7703L24.8786 10.0819H27.724L28.3154 10.7703L26.3013 12.7844L24.2871 10.7703ZM9.68451 10.7703L10.276 10.0819H13.1214L13.7128 10.7703L11.6987 12.7844L9.68451 10.7703ZM11.6987 35.287C5.87041 35.287 1.12872 30.5453 1.12872 24.717C1.12872 18.8887 5.87041 14.147 11.6987 14.147C14.2472 14.147 16.7087 15.0667 18.6298 16.7368C19.2261 17.2551 19.7659 17.8425 20.2343 18.4825C21.5652 20.3015 22.2687 22.4573 22.2687 24.7171C22.2687 26.7635 21.6917 28.7249 20.5941 30.4279C20.5799 30.4137 20.5662 30.399 20.5521 30.3846C20.4902 30.3218 20.429 30.2583 20.3692 30.1936C20.3427 30.165 20.3169 30.1356 20.2909 30.1066C20.2418 30.052 20.1933 29.9968 20.1458 29.9409C20.1185 29.9087 20.0915 29.8764 20.0647 29.8438C20.0189 29.7881 19.9738 29.7315 19.9294 29.6746C19.9044 29.6425 19.8793 29.6105 19.8549 29.5781C19.8062 29.5138 19.7589 29.4484 19.7123 29.3825C19.6978 29.3621 19.6829 29.342 19.6686 29.3214C20.4766 27.9253 20.902 26.3413 20.902 24.7171C20.902 23.0898 20.4746 21.5033 19.6637 20.1053L19.6682 20.0982L19.4767 19.796C19.1069 19.2127 18.6739 18.674 18.1848 18.1883C18.0217 18.0263 17.8524 17.8702 17.6772 17.7204L17.2145 17.3247L17.2026 17.341C15.6188 16.1588 13.6868 15.5137 11.6988 15.5137C6.6241 15.5137 2.49553 19.6424 2.49553 24.717C2.49553 29.7916 6.6241 33.9202 11.6988 33.9202C13.6918 33.9202 15.6285 33.272 17.2144 32.0842C17.2214 32.093 17.2289 32.1014 17.236 32.1101C17.276 32.1591 17.317 32.2074 17.3578 32.2558C17.3892 32.293 17.4202 32.3306 17.4519 32.3674C17.4954 32.4176 17.5399 32.467 17.5842 32.5166C17.6146 32.5505 17.6445 32.5849 17.6752 32.6184C17.7239 32.6715 17.7736 32.7236 17.8233 32.7759C17.8507 32.8048 17.8777 32.8343 17.9055 32.8629C17.966 32.9253 18.0277 32.9865 18.0896 33.0475C18.1065 33.0642 18.1229 33.0814 18.1398 33.098C16.2989 34.5137 14.0353 35.287 11.6987 35.287ZM21.4549 18.2612C22.8478 17.215 24.549 16.6424 26.3013 16.6424C30.7536 16.6424 34.3758 20.2647 34.3758 24.717C34.3758 29.1693 30.7536 32.7914 26.3013 32.7914C24.5491 32.7914 22.8478 32.2188 21.4549 31.1727C22.7272 29.2564 23.3974 27.0361 23.3974 24.7169C23.3974 22.3977 22.7273 20.1773 21.4549 18.2612ZM19 28.1656C18.4928 27.0928 18.2268 25.9179 18.2268 24.717C18.2268 23.5161 18.4928 22.3411 19 21.2684C19.5072 22.3412 19.7732 23.5161 19.7732 24.717C19.7732 25.9179 19.5072 27.0928 19 28.1656ZM16.5451 18.2612C15.2728 20.1774 14.6026 22.3977 14.6026 24.717C14.6026 27.0362 15.2727 29.2566 16.5451 31.1728C15.1522 32.219 13.4509 32.7916 11.6987 32.7916C7.24642 32.7916 3.62418 29.1694 3.62418 24.7171C3.62418 20.2648 7.24642 16.6424 11.6987 16.6424C13.451 16.6424 15.1522 17.215 16.5451 18.2612ZM26.3013 35.287C23.7528 35.287 21.2913 34.3673 19.3702 32.6972C18.7739 32.179 18.2341 31.5915 17.7657 30.9514C16.4348 29.1325 15.7313 26.9767 15.7313 24.717C15.7313 22.6706 16.3083 20.7091 17.4058 19.0062C17.4202 19.0206 17.434 19.0354 17.4482 19.0499C17.5101 19.1126 17.5711 19.1759 17.6308 19.2405C17.6572 19.269 17.6828 19.2983 17.7087 19.3272C17.758 19.382 17.8067 19.4374 17.8545 19.4936C17.8815 19.5255 17.9082 19.5576 17.9348 19.5898C17.981 19.6459 18.0263 19.7028 18.071 19.7601C18.0958 19.7918 18.1207 19.8235 18.145 19.8557C18.1936 19.9201 18.2409 19.9855 18.2876 20.0513C18.3021 20.0719 18.3171 20.092 18.3314 20.1127C17.5234 21.5087 17.098 23.0928 17.098 24.7171C17.098 26.3443 17.5254 27.9307 18.3363 29.3287L18.3317 29.3359L18.5233 29.6381C19.0163 30.4157 19.6217 31.1141 20.3227 31.7137L20.7854 32.1094L20.7974 32.093C22.3812 33.2752 24.313 33.9203 26.3011 33.9203C31.3758 33.9203 35.5044 29.7918 35.5044 24.7171C35.5044 19.6424 31.3759 15.5139 26.3011 15.5139C24.3081 15.5139 22.3715 16.162 20.7856 17.3499C20.7785 17.3411 20.771 17.3328 20.764 17.3241C20.724 17.2751 20.6831 17.2269 20.6424 17.1786C20.6109 17.1413 20.5797 17.1036 20.5478 17.0667C20.5048 17.017 20.4608 16.968 20.4169 16.9191C20.386 16.8846 20.3557 16.8497 20.3244 16.8156C20.2768 16.7636 20.2281 16.7127 20.1796 16.6616C20.1511 16.6315 20.123 16.6009 20.0941 16.571C20.0361 16.5112 19.977 16.4527 19.9179 16.3942C19.8985 16.375 19.8796 16.3552 19.86 16.3361C21.701 14.9203 23.9645 14.1471 26.3012 14.1471C32.1295 14.1471 36.8712 18.8888 36.8712 24.7171C36.8713 30.5454 32.1296 35.287 26.3013 35.287Z" fill="#E9EBFB"/>
<path d="M19.5644 1.58429H18.4357V5.0981H19.5644V1.58429Z" fill="#E9EBFB"/>
<path d="M23.8749 2.6083L22.3999 5.79736L23.4242 6.27117L24.8993 3.0821L23.8749 2.6083Z" fill="#E9EBFB"/>
<path d="M14.1245 2.6092L13.1001 3.08301L14.5752 6.27208L15.5996 5.79827L14.1245 2.6092Z" fill="#E9EBFB"/>
</svg>
