<?xml version="1.0" encoding="UTF-8"?>
<svg width="60px" height="60px" viewBox="0 0 60 60" version="1.1" xmlns="http://www.w3.org/2000/svg" xmlns:xlink="http://www.w3.org/1999/xlink">
    <!-- Generator: Sketch 53 (72520) - https://sketchapp.com -->
    <title>facebook_logo</title>
    <desc>Created with Sketch.</desc>
    <g id="facebook_logo" stroke="none" stroke-width="1" fill="none" fill-rule="evenodd">
        <path d="M51.8873839,4.86721774e-13 L8.0809291,4.86721774e-13 C3.61804401,4.86721774e-13 -7.10542736e-15,3.61789731 -7.10542736e-15,8.0809291 L-7.10542736e-15,51.8876773 C-7.10542736e-15,56.350709 3.61789731,59.9686064 8.0809291,59.9686064 L29.6860636,59.9686064 L29.7228851,38.5390709 L24.1555012,38.5390709 C23.4319804,38.5390709 22.8447433,37.9540342 22.841956,37.2305134 L22.8152567,30.3228851 C22.8124694,29.5954034 23.401467,29.0042054 24.1289487,29.0042054 L29.6862103,29.0042054 L29.6862103,22.3296822 C29.6862103,14.5839609 34.4168215,10.366357 41.3265037,10.366357 L46.9964303,10.366357 C47.7218582,10.366357 48.3101222,10.9544743 48.3101222,11.6800489 L48.3101222,17.5045966 C48.3101222,18.2298778 47.7222983,18.8178484 46.9971638,18.8182885 L43.5176039,18.8199022 C39.7599022,18.8199022 39.0322738,20.6055257 39.0322738,23.2260147 L39.0322738,29.0043521 L47.2892421,29.0043521 C48.0759902,29.0043521 48.6864059,29.6913447 48.5936919,30.472665 L47.7749633,37.3802934 C47.6966259,38.0413203 47.136088,38.5393643 46.4705134,38.5393643 L39.0690954,38.5393643 L39.0322738,59.9688998 L51.8876773,59.9688998 C56.3505623,59.9688998 59.9684597,56.3510024 59.9684597,51.8881174 L59.9684597,8.0809291 C59.968313,3.61789731 56.3504156,4.86721774e-13 51.8873839,4.86721774e-13 Z" fill="#A99079" fill-rule="nonzero"></path>
    </g>
</svg>