<?xml version="1.0" encoding="UTF-8"?>
<svg width="60px" height="60px" viewBox="0 0 60 60" version="1.1" xmlns="http://www.w3.org/2000/svg" xmlns:xlink="http://www.w3.org/1999/xlink">
    <!-- Generator: Sketch 53 (72520) - https://sketchapp.com -->
    <title>instagram_logo_alt</title>
    <desc>Created with Sketch.</desc>
    <g id="instagram_logo_alt" stroke="none" stroke-width="1" fill="none" fill-rule="evenodd">
        <g fill="#FFFFFF" fill-rule="nonzero">
            <path d="M43.4418142,0 L16.557476,0 C7.42768925,0 0,7.42804415 0,16.5578309 L0,43.4421691 C0,52.5723107 7.42768925,60 16.557476,60 L43.4418142,60 C52.5723107,60 60,52.5719559 60,43.4421691 L60,16.5578309 C60.0003549,7.42804415 52.5723107,0 43.4418142,0 Z M54.6768641,43.4421691 C54.6768641,49.6369379 49.6369379,54.6765092 43.4421691,54.6765092 L16.557476,54.6765092 C10.3630621,54.6768641 5.32349079,49.6369379 5.32349079,43.4421691 L5.32349079,16.5578309 C5.32349079,10.363417 10.3630621,5.32349079 16.557476,5.32349079 L43.4418142,5.32349079 C49.636583,5.32349079 54.6765092,10.363417 54.6765092,16.5578309 L54.6765092,43.4421691 L54.6768641,43.4421691 Z" id="Shape"></path>
            <path d="M30,14.6511628 C21.5365237,14.6511628 14.6511628,21.5366817 14.6511628,30.0003523 C14.6511628,38.4636706 21.5365237,45.3488372 30,45.3488372 C38.4634763,45.3488372 45.3488372,38.4636706 45.3488372,30.0003523 C45.3488372,21.5366817 38.4634763,14.6511628 30,14.6511628 Z M30,40.0633153 C24.4510516,40.0633153 19.9362111,35.5490757 19.9362111,30 C19.9362111,24.4505719 24.4506993,19.93598 30,19.93598 C35.5493007,19.93598 40.0637889,24.4505719 40.0637889,30 C40.0637889,35.5490757 35.5489484,40.0633153 30,40.0633153 Z" id="Shape"></path>
            <path d="M45.6976744,9.76744186 C44.6895349,9.76744186 43.699186,10.1755814 42.9872093,10.8906977 C42.2717442,11.6023256 41.8604651,12.5930233 41.8604651,13.6046512 C41.8604651,14.6131395 42.272093,15.6034884 42.9872093,16.3186047 C43.6988372,17.0302326 44.6895349,17.4418605 45.6976744,17.4418605 C46.7093023,17.4418605 47.6965116,17.0302326 48.4116279,16.3186047 C49.1267442,15.6034884 49.5348837,14.6127907 49.5348837,13.6046512 C49.5348837,12.5930233 49.1267442,11.6023256 48.4116279,10.8906977 C47.7,10.1755814 46.7093023,9.76744186 45.6976744,9.76744186 Z" id="Path"></path>
        </g>
    </g>
</svg>