<svg width="130" height="111" viewBox="0 0 130 111" fill="none" xmlns="http://www.w3.org/2000/svg">
<path d="M114.061 66.4926V63.7004H119.676V66.4909H114.061V66.4926ZM124.395 65.6447C124.395 87.5622 106.544 105.407 84.6223 105.407C62.687 105.407 44.8423 87.5622 44.8423 65.6447C44.8423 43.7237 62.6888 25.886 84.6223 25.886C92.2748 25.886 99.7378 28.1379 106.114 32.2333L101.229 37.1141L122.753 42.7212L117.139 21.2225L110.168 28.19C105.544 25.0451 100.405 22.8071 94.9884 21.53V16.022C99.105 15.6658 102.347 12.2515 102.347 8.04834C102.347 3.60194 98.7399 0 94.2896 0H76.7873C72.337 0 68.7367 3.60194 68.7367 8.04834C68.7367 12.2515 71.9719 15.6623 76.0884 16.022V21.1199C73.6842 21.5804 71.353 22.2528 69.0931 23.0747H60.3976C60.8235 24.2666 61.0981 25.4864 61.4198 26.7044C59.956 27.5767 58.5688 28.5497 57.2163 29.5766C56.7278 27.3873 56.1193 25.2067 55.271 23.0747H40.571V37.0846H49.4317C48.1939 38.6032 47.0657 40.2104 46.0296 41.8819H40.571V54.891C39.7261 58.3452 39.2446 61.9402 39.2446 65.643C39.2446 90.6533 59.5996 111 84.6206 111C109.643 111 130 90.6515 130 65.643H124.395V65.6447ZM97.4935 80.0785V73.4741H85.6375V70.9251V68.3813L96.7164 50.1092H100.005H103.302V68.7966H106.671V73.4724H103.302V80.0768H97.4935V80.0785ZM97.4935 68.7897V56.3175L90.2287 68.3761L89.9749 68.7966H97.4917V68.7897H97.4935ZM86.4528 94.0867H83.654V99.7059H86.4528V94.0867ZM73.3209 66.0634C69.5068 68.7514 66.8975 71.0624 65.5207 73.0241C64.1299 74.9736 63.4433 77.3315 63.4433 80.0629V80.0803H83.8765V74.8885H70.7637L70.7793 74.8502C71.7702 73.4654 73.6112 71.9138 76.3162 70.204C79.2263 68.3379 81.2237 66.6646 82.2876 65.1738C83.355 63.6795 83.887 61.7925 83.887 59.5216C83.887 56.745 82.9517 54.4879 81.0916 52.7382C79.2037 50.9867 76.789 50.104 73.8546 50.104C70.6837 50.104 68.1961 51.0632 66.3951 52.9658C64.601 54.8719 63.744 57.4417 63.8379 60.6909H69.6198C69.559 58.9464 69.9084 57.5633 70.6664 56.5521C71.4208 55.5391 72.4708 55.0352 73.8042 55.0352C75.0697 55.0352 76.085 55.4401 76.8499 56.2532C77.6148 57.0595 77.999 58.1211 77.999 59.4625C77.999 60.6753 77.6461 61.7769 76.949 62.776C76.2466 63.7716 75.0506 64.875 73.3209 66.0634ZM86.4528 30.4836H83.654V36.0942H86.4528V30.4836ZM56.0394 66.4926V63.7004H50.4278V66.4909H56.0394V66.4926ZM29.0766 2.34396C19.7953 4.6132 11.6856 10.2707 6.34172 18.2634H17.9386C20.5776 12.7397 24.3134 7.39502 29.0766 2.34396ZM15.9534 23.0747H3.61763C1.50894 27.4811 0.29553 32.1968 0 37.0863H13.2137C13.4066 32.341 14.3297 27.6375 15.9534 23.0747ZM69.9988 18.2686C64.6567 10.2707 56.547 4.61841 47.2604 2.34917C52.0254 7.39849 55.7682 12.7432 58.4001 18.2686H69.9988ZM40.564 2.1702V18.2634H53.0093C49.9636 12.5451 45.6593 7.08052 40.564 2.1702ZM18.0204 37.0863H35.7817V23.0764H21.0852C19.2581 27.6219 18.2307 32.3306 18.0204 37.0863ZM13.2536 41.8837H0.00347682C0.293791 46.787 1.51415 51.4906 3.61937 55.9075H16.2941C14.5609 51.3568 13.5544 46.6567 13.2536 41.8837ZM21.4676 55.9075H35.773V41.8837H18.0569C18.3906 46.6446 19.5397 51.3568 21.4676 55.9075ZM35.7817 18.2686V2.42215C30.4656 7.39502 26.2917 12.7154 23.3399 18.2686H35.7817ZM35.7817 75.6791V60.717H23.8232C26.7385 65.9436 30.7455 70.9703 35.7817 75.6791ZM6.35041 60.717C11.9151 69.0572 20.4159 74.8068 30.1458 76.8849C25.1548 71.7956 21.2069 66.3536 18.3854 60.717H6.35041Z" fill="black"/>
</svg>
