<svg width="89" height="108" viewBox="0 0 89 108" fill="none" xmlns="http://www.w3.org/2000/svg">
<path fill-rule="evenodd" clip-rule="evenodd" d="M17.375 44.227L18.567 40.537H25.463L26.694 44.227H28.705H30.72L24.289 26.054H22.088H19.887L13.456 44.227H15.424H17.375ZM24.447 37.414L22.035 30.102L19.623 37.414H24.447Z" fill="#010002"/>
<path fill-rule="evenodd" clip-rule="evenodd" d="M57.287 29.987H33.494V26.408H57.287V29.987ZM11.764 86.648H57.294V90.227H11.764V86.648ZM39.661 77.7H12.182V74.121H37.345C37.997 75.374 38.766 76.577 39.661 77.7ZM34.908 65.554H12.608V61.975H34.919C34.819 63.163 34.811 64.366 34.908 65.554ZM37.234 53.69H12.608V50.111H39.489C38.612 51.253 37.857 52.448 37.234 53.69ZM75.8 3.439L79.071 0H15.242L0 11.009V107.226H71.258V104.349V103.154V101.952V96.029V81.34C69.34 82.872 67.214 84.024 64.981 84.844V95.813H5.594V18.198H64.981V42.677C67.196 43.486 69.319 44.653 71.258 46.191V11.005H12H7.086L17.558 3.436H75.8V3.439ZM31.877 98.726H37.245V104.094H31.877V98.726ZM57.265 83.008C52.781 83.008 48.411 81.423 44.964 78.549C36.819 71.756 35.716 59.599 42.509 51.45C46.174 47.052 51.567 44.521 57.3 44.521C61.788 44.521 66.161 46.106 69.604 48.98C73.551 52.265 75.982 56.9 76.443 62.018C76.8499 66.5351 75.6825 70.9571 73.1395 74.6496L75.2784 76.4312L75.853 75.743L88.819 86.551L85.381 90.674L72.414 79.862L72.9838 79.1796L70.8482 77.4008C67.2571 80.9848 62.3962 83.008 57.265 83.008ZM57.301 48.1C52.631 48.1 48.243 50.154 45.258 53.74C39.729 60.375 40.623 70.271 47.255 75.8C50.061 78.133 53.615 79.429 57.261 79.429C61.928 79.429 66.319 77.375 69.307 73.789C71.988 70.579 73.258 66.506 72.879 62.34C72.5 58.174 70.524 54.406 67.314 51.729C64.505 49.385 60.951 48.1 57.301 48.1Z" fill="#010002"/>
<path d="M52.484 41.844H33.487V38.265H57.283V41.307C55.669 41.311 54.062 41.5 52.484 41.844Z" fill="#010002"/>
</svg>
