<?xml version="1.0" encoding="UTF-8"?>
<svg width="100px" height="100px" viewBox="0 0 100 100" version="1.1" xmlns="http://www.w3.org/2000/svg" xmlns:xlink="http://www.w3.org/1999/xlink">
    <!-- Generator: sketchtool 49 (51002) - http://www.bohemiancoding.com/sketch -->
    <title>DE32DCC1-A712-4AEF-98DE-3219E574C4AC</title>
    <desc>Created with sketchtool.</desc>
    <defs></defs>
    <g id="Page-1" stroke="none" stroke-width="1" fill="none" fill-rule="evenodd">
        <g id="Atomic" transform="translate(-468.000000, -218.000000)" stroke="#0066B3">
            <g id="ic_elements" transform="translate(468.000000, 218.000000)">
                <circle id="Oval" stroke-width="2" cx="50" cy="50" r="49"></circle>
                <g id="molecule-(1)" transform="translate(21.428571, 21.428571)" fill="#0066B3" fill-rule="nonzero">
                    <path d="M52.7257478,48.3086385 C51.8104557,48.3086385 50.9593514,48.5886497 50.2532849,49.0672631 L35.4197372,34.2337154 C36.6944367,32.6947722 37.46156,30.7210512 37.46156,28.5714286 C37.46156,26.421806 36.6944367,24.448085 35.4197372,22.9091417 L45.6524462,12.6764328 C46.8616159,13.6304166 48.3857982,14.2018451 50.0419346,14.2018451 C53.9573945,14.2018451 57.1428571,11.0163824 57.1428571,7.10092256 C57.1428571,3.18546268 53.9573945,0 50.0419346,0 C46.1264747,0 42.941012,3.18546268 42.941012,7.10092256 C42.941012,8.75705899 43.5124406,10.2812413 44.4664244,11.490411 L34.2337154,21.7231199 C32.6947722,20.4484205 30.7210512,19.6812972 28.5714286,19.6812972 C26.421806,19.6812972 24.448085,20.4484205 22.9091417,21.7231199 L16.1270338,14.941012 C16.6056472,14.2350573 16.8856584,13.383953 16.8856584,12.4685491 C16.8856584,10.0329885 14.9041096,8.05143975 12.4685491,8.05143975 C10.0329885,8.05143975 8.05143975,10.0329885 8.05143975,12.4685491 C8.05143975,14.9041096 10.0329885,16.8856584 12.4685491,16.8856584 C13.3838412,16.8856584 14.2349455,16.6056472 14.941012,16.1270338 L21.7231199,22.9091417 C20.4484205,24.448085 19.6812972,26.421806 19.6812972,28.5714286 C19.6812972,29.6041375 19.8602181,30.5953592 20.1854068,31.5182555 L9.72088342,36.3480011 C8.76611686,34.9298295 7.14610008,33.9949679 5.31171373,33.9949679 C2.38289069,33.9949679 0,36.3778585 0,39.3066816 C0,42.2355046 2.38289069,44.6183953 5.31171373,44.6183953 C8.24053676,44.6183953 10.6234275,42.2355046 10.6234275,39.3066816 C10.6234275,38.8090579 10.5530892,38.3277607 10.4246016,37.8706178 L20.8909142,33.0399776 C22.4284037,35.6723511 25.2780542,37.4482527 28.5374336,37.4606654 L29.1329047,44.0105116 C27.292927,44.5439195 25.9435281,46.2432206 25.9435281,48.2527257 C25.9435281,50.6882863 27.9250769,52.6698351 30.3606374,52.6698351 C32.7961979,52.6698351 34.7777467,50.6882863 34.7777467,48.2527257 C34.7777467,45.9665642 33.0318144,44.0806262 30.8032429,43.8578697 L30.2078837,37.3080235 C31.7177523,37.0257758 33.0951076,36.3628739 34.2337154,35.4197372 L49.0672631,50.2532849 C48.5886497,50.9592396 48.3086385,51.8103439 48.3086385,52.7257478 C48.3086385,55.1613084 50.2901873,57.1428571 52.7257478,57.1428571 C55.1613084,57.1428571 57.1428571,55.1613084 57.1428571,52.7257478 C57.1428571,50.2901873 55.1613084,48.3086385 52.7257478,48.3086385 Z M5.31171373,42.941012 C3.30779983,42.941012 1.67738328,41.3105955 1.67738328,39.3066816 C1.67738328,37.3027677 3.30779983,35.6723511 5.31171373,35.6723511 C6.75169136,35.6723511 7.99876992,36.5142857 8.58663685,37.7316187 C8.59345821,37.7495108 8.60005591,37.7675147 8.60821918,37.7851831 C8.6126922,37.7949119 8.61873078,37.8032989 8.62353928,37.812804 C8.83008107,38.2689405 8.94604417,38.7743919 8.94604417,39.3066816 C8.94604417,41.3105955 7.31562762,42.941012 5.31171373,42.941012 Z M50.0419346,1.67738328 C53.0324853,1.67738328 55.4654739,4.11037182 55.4654739,7.10092256 C55.4654739,10.0914733 53.0324853,12.5244618 50.0419346,12.5244618 C47.0513838,12.5244618 44.6183953,10.0914733 44.6183953,7.10092256 C44.6183953,4.11037182 47.0513838,1.67738328 50.0419346,1.67738328 Z M9.72882304,12.4685491 C9.72882304,10.9578977 10.9578977,9.72882304 12.4685491,9.72882304 C13.9792004,9.72882304 15.2082751,10.9578977 15.2082751,12.4685491 C15.2082751,13.9792004 13.9792004,15.2082751 12.4685491,15.2082751 C10.9578977,15.2082751 9.72882304,13.9792004 9.72882304,12.4685491 Z M21.3586805,28.5714286 C21.3586805,24.5943528 24.5943528,21.3586805 28.5714286,21.3586805 C32.5485043,21.3586805 35.7841767,24.5943528 35.7841767,28.5714286 C35.7841767,32.5485043 32.5485043,35.7841767 28.5714286,35.7841767 C24.5943528,35.7841767 21.3586805,32.5485043 21.3586805,28.5714286 Z M33.1003634,48.2527257 C33.1003634,49.7633771 31.8712888,50.9924518 30.3606374,50.9924518 C28.849986,50.9924518 27.6209114,49.7633771 27.6209114,48.2527257 C27.6209114,46.7420744 28.849986,45.5129997 30.3606374,45.5129997 C31.8712888,45.5129997 33.1003634,46.7420744 33.1003634,48.2527257 Z M52.7257478,55.4654739 C51.2150964,55.4654739 49.9860218,54.2363992 49.9860218,52.7257478 C49.9860218,51.2150964 51.2150964,49.9860218 52.7257478,49.9860218 C54.2363992,49.9860218 55.4654739,51.2150964 55.4654739,52.7257478 C55.4654739,54.2363992 54.2363992,55.4654739 52.7257478,55.4654739 Z" id="Shape"></path>
                </g>
            </g>
        </g>
    </g>
</svg>