<?xml version="1.0" encoding="UTF-8"?>
<svg width="21px" height="20px" viewBox="0 0 21 20" version="1.1" xmlns="http://www.w3.org/2000/svg" xmlns:xlink="http://www.w3.org/1999/xlink">
    <!-- Generator: sketchtool 49 (51002) - http://www.bohemiancoding.com/sketch -->
    <title>08DDEAFA-EA6D-425C-901E-B49880633953</title>
    <desc>Created with sketchtool.</desc>
    <defs></defs>
    <g id="Page-1" stroke="none" stroke-width="1" fill="none" fill-rule="evenodd" opacity="0.561141304">
        <g id="Atomic" transform="translate(-1161.000000, -111.000000)" fill-rule="nonzero">
            <g id="ic_facebook" transform="translate(1161.000000, 111.000000)">
                <path d="M8.33359874,16.4948454 L11.0427126,16.4948454 L11.0427126,9.99641237 L12.8607153,9.99641237 C12.8607153,9.99641237 13.0310675,8.94783505 13.1140436,7.80115464 L11.0532558,7.80115464 L11.0532558,6.30573196 C11.0532558,6.08239175 11.3483419,5.78218557 11.64073,5.78218557 L13.1169492,5.78218557 L13.1169492,3.50515464 L11.1093342,3.50515464 C8.26689408,3.50515464 8.33355723,5.69410309 8.33355723,6.02098969 L8.33355723,7.80886598 L7.01478091,7.80886598 L7.01478091,9.99562887 L8.33355723,9.99562887 L8.33355723,16.4948454 L8.33359874,16.4948454 Z" id="Shape" fill="#0066B3"></path>
                <path d="M1,1 L1,19 L19.1317716,19 L19.1317716,1 L1,1 Z" id="Shape" stroke="#0066B3" stroke-width="2"></path>
            </g>
        </g>
    </g>
</svg>