<?xml version="1.0" encoding="UTF-8"?>
<svg width="100px" height="100px" viewBox="0 0 100 100" version="1.1" xmlns="http://www.w3.org/2000/svg" xmlns:xlink="http://www.w3.org/1999/xlink">
    <!-- Generator: sketchtool 49 (51002) - http://www.bohemiancoding.com/sketch -->
    <title>AD2ABED3-7411-48B7-926B-2AFAE53A0234</title>
    <desc>Created with sketchtool.</desc>
    <defs></defs>
    <g id="Page-1" stroke="none" stroke-width="1" fill="none" fill-rule="evenodd">
        <g id="Atomic" transform="translate(-990.000000, -218.000000)">
            <g id="ic_microfertilizers_Peters" transform="translate(990.000000, 218.000000)">
                <circle id="Oval" stroke="#0066B3" stroke-width="2" cx="50" cy="50" r="49"></circle>
                <g id="fertilizer-(1)" transform="translate(28.571429, 21.428571)" fill="#0066B3" fill-rule="nonzero">
                    <path d="M43.0096338,1.03314732 C42.9917499,0.841466991 42.931488,0.497084551 42.8288479,-2.33464042e-14 C42.3893196,-1.70683573e-14 42.0691066,-1.39293339e-14 41.8682088,-1.39293339e-14 L2.41761784,-1.39293339e-14 C2.22631374,-1.39293339e-14 1.88890753,-1.87601257e-14 1.40539919,-2.84217094e-14 C1.33806919,0.487598391 1.29500042,0.831980831 1.27619289,1.03314732 C1.26326686,1.16886161 0.0067440174,14.7686384 0.0067440174,28.5714286 C0.0067440174,42.3742187 1.26326686,55.9739955 1.27608049,56.1097098 C1.29621343,56.3250529 1.33931966,56.6694353 1.40539919,57.1428571 C1.9031698,57.1428571 2.24053855,57.1428571 2.41750544,57.1428571 L41.8682088,57.1428571 C42.0890433,57.1428571 42.4481487,57.1428571 42.9455251,57.1428571 C42.9721866,56.6260593 42.9935562,56.2816768 43.0096338,56.1097098 C43.022335,55.9739955 44.2789703,42.3741071 44.2789703,28.5714286 C44.2789703,14.76875 43.0225598,1.16886161 43.0096338,1.03314732 Z M40.8171537,54.8662946 L3.46867295,54.8662946 C3.41696882,54.2544643 3.34626904,53.3862723 3.26511603,52.3092634 L40.839971,52.3092634 C41.4730094,52.3092634 41.9863416,51.7996652 41.9863416,51.1709821 C41.9863416,50.5422991 41.4730094,50.0327009 40.839971,50.0327009 L3.1010116,50.0327009 C2.74088107,44.7977679 2.29959753,36.7212054 2.29959753,28.5715402 C2.29959753,20.4239955 2.74099347,12.3464286 3.101124,7.11037946 L40.839971,7.11037946 C41.4730094,7.11037946 41.9863416,6.60078125 41.9863416,5.97209821 C41.9863416,5.34341518 41.4730094,4.83381696 40.839971,4.83381696 L3.26511603,4.83381696 C3.34626904,3.75680804 3.41696882,2.88872768 3.46867295,2.27678571 L40.8171537,2.27678571 C41.1059101,5.69308036 41.9863416,17.0601563 41.9863416,28.5714286 C41.9863416,40.0790179 41.1057977,51.4488839 40.8171537,54.8662946 Z" id="Shape" stroke="#0066B3" stroke-width="0.5"></path>
                    <path d="M22.1429695,14.1245536 C14.1203988,14.1245536 7.5935388,20.6053571 7.5935388,28.5714286 C7.5935388,36.5375 14.1203988,43.0183036 22.1429695,43.0183036 C30.1655402,43.0183036 36.6924003,36.5373884 36.6924003,28.5714286 C36.6924003,20.6054688 30.1655402,14.1245536 22.1429695,14.1245536 Z M23.2244851,40.6936384 L23.2244851,37.1079241 L25.6985279,34.6513393 C26.2278209,34.925558 26.8191588,35.0715402 27.4332016,35.0715402 C28.4367114,35.0715402 29.3803118,34.6834821 30.0901197,33.9787946 C31.2286222,32.8482143 32.5487636,28.5796875 32.9263162,27.2983259 C33.0438869,26.8991071 32.9329478,26.4679688 32.636773,26.1737723 C32.3405983,25.8797991 31.9062835,25.769308 31.5042277,25.8862723 C30.21376,26.2611607 25.9148985,27.5719866 24.7762835,28.7024554 C23.5978789,29.8725446 23.3681327,31.6324777 24.0854714,33.0334821 L23.2244851,33.8883929 L23.2244851,28.5232143 C24.7707759,28.0608259 25.9003988,26.6345982 25.9003988,24.950558 C25.9003988,23.3517857 23.7941298,19.4065848 23.1485025,18.2354911 C22.9474184,17.8706473 22.561773,17.64375 22.1428571,17.64375 C21.7239413,17.64375 21.3382959,17.8706473 21.1373241,18.2356027 C20.4916969,19.4066964 18.3854278,23.3518973 18.3854278,24.9506696 C18.3854278,26.5870536 19.4524438,27.9799107 20.9316316,28.4815848 L20.9316316,33.8026786 L20.1860805,33.0623884 C20.9211784,31.656808 20.6959282,29.880692 19.5094307,28.7026786 C18.3708158,27.5722098 14.0719543,26.2613839 12.7814866,25.8864955 C12.3797679,25.7698661 11.9453408,25.8800223 11.6489413,26.1739955 C11.3527665,26.4680804 11.2416026,26.8993304 11.3593981,27.2985491 C11.7369507,28.5799107 13.0572045,32.8484375 14.1955946,33.9790179 C14.9051777,34.6835938 15.8488905,35.0717634 16.8525127,35.0717634 C17.4555402,35.0717634 18.0365373,34.930692 18.5584119,34.6659598 L20.9315192,37.0223214 L20.9315192,40.6823661 C14.739612,40.0764509 9.88605511,34.8764509 9.88605511,28.5715402 C9.88605511,21.8608259 15.3843401,16.4012277 22.1427447,16.4012277 C28.9011494,16.4012277 34.3995468,21.8607143 34.3995468,28.5714286 C34.3995468,34.9202009 29.4781001,40.1482143 23.2244851,40.6936384 Z" id="Shape"></path>
                </g>
            </g>
        </g>
    </g>
</svg>