<?xml version="1.0" encoding="UTF-8"?>
<svg width="100px" height="100px" viewBox="0 0 100 100" version="1.1" xmlns="http://www.w3.org/2000/svg" xmlns:xlink="http://www.w3.org/1999/xlink">
    <!-- Generator: sketchtool 49 (51002) - http://www.bohemiancoding.com/sketch -->
    <title>0789C9B5-ADDE-451A-92E1-076EF8A2B29B</title>
    <desc>Created with sketchtool.</desc>
    <defs>
        <rect id="path-1" x="0" y="0" width="10.952381" height="4.76190476" rx="0.689655172"></rect>
    </defs>
    <g id="Page-1" stroke="none" stroke-width="1" fill="none" fill-rule="evenodd">
        <g id="Atomic" transform="translate(-729.000000, -218.000000)">
            <g id="ic_microfertilizers_Kharkov" transform="translate(729.000000, 218.000000)">
                <g id="Group" transform="translate(34.285714, 21.428571)">
                    <path d="M1.25,8.0952381 L1.25,55.0595238 C1.25,55.5197611 1.62309604,55.8928571 2.08333333,55.8928571 L30.4777992,55.8928571 C30.9380365,55.8928571 31.3111326,55.5197611 31.3111326,55.0595238 L31.3111326,26.1108564 L21.7861649,24.9841818 L10.2213278,8.0952381 L1.25,8.0952381 Z" id="Rectangle-7" stroke="#0066B3" stroke-width="2.5"></path>
                    <g id="Rectangle-4">
                        <use fill="#0066B3" fill-rule="evenodd" xlink:href="#path-1"></use>
                        <rect stroke="#0066B3" stroke-width="1.37931034" x="0.689655172" y="0.689655172" width="9.57307061" height="3.38259442" rx="0.689655172"></rect>
                    </g>
                    <path d="M15.1647357,14.3312433 L22.1097203,24.4900408 L31.3153776,25.8280227 L31.3153776,25.1406174 L27.746164,8.29606455 C27.6645618,7.91095092 27.324595,7.635472 26.9309309,7.635472 L16.3224227,7.635472 C15.8800022,7.635472 15.5146976,7.98119835 15.490352,8.42294847 L15.1647357,14.3312433 Z" id="Path-2" stroke="#0066B3" stroke-width="2.5"></path>
                </g>
                <circle id="Oval" stroke="#0066B3" stroke-width="2" cx="50" cy="50" r="49"></circle>
            </g>
        </g>
    </g>
</svg>