<?xml version="1.0" encoding="UTF-8"?>
<svg width="15px" height="15px" viewBox="0 0 15 15" version="1.1" xmlns="http://www.w3.org/2000/svg" xmlns:xlink="http://www.w3.org/1999/xlink">
    <!-- Generator: sketchtool 49 (51002) - http://www.bohemiancoding.com/sketch -->
    <title>BE17A15C-6F0F-49DE-9106-B9B2CF0B0923</title>
    <desc>Created with sketchtool.</desc>
    <defs></defs>
    <g id="Page-1" stroke="none" stroke-width="1" fill="none" fill-rule="evenodd">
        <g id="Atomic" transform="translate(-789.000000, -116.000000)" fill="#FFFFFF">
            <path d="M803.870259,130.235033 L800.224218,126.5898 C801.202262,125.465632 801.794411,123.998891 801.794411,122.395787 C801.794411,118.866962 798.923486,116 795.397206,116 C791.867598,116 789,118.870288 789,122.395787 C789,125.921286 791.870925,128.791574 795.397206,128.791574 C797.000665,128.791574 798.467731,128.199557 799.592149,127.221729 L803.23819,130.866962 C803.324684,130.953437 803.441118,131 803.554225,131 C803.667332,131 803.783766,130.956763 803.870259,130.866962 C804.043247,130.694013 804.043247,130.407982 803.870259,130.235033 L803.870259,130.235033 Z M789.894877,122.395787 C789.894877,119.362528 792.363273,116.898004 795.393879,116.898004 C798.427811,116.898004 800.892881,119.365854 800.892881,122.395787 C800.892881,125.425721 798.427811,127.896896 795.393879,127.896896 C792.363273,127.896896 789.894877,125.429047 789.894877,122.395787 L789.894877,122.395787 Z" id="ic_search"></path>
        </g>
    </g>
</svg>