<?xml version="1.0" encoding="UTF-8"?>
<svg width="140px" height="140px" viewBox="0 0 140 140" version="1.1" xmlns="http://www.w3.org/2000/svg" xmlns:xlink="http://www.w3.org/1999/xlink">
    <!-- Generator: sketchtool 49 (51002) - http://www.bohemiancoding.com/sketch -->
    <title>895AB398-B6B1-4A58-BB77-B70C7449C5EC</title>
    <desc>Created with sketchtool.</desc>
    <defs>
        <rect id="path-1" x="28.2047059" y="93.4066406" width="2.94176471" height="2.93027344"></rect>
        <path d="M29.5931373,71.1433594 C27.025098,68.5851562 22.9731373,68.6386719 22.8021569,68.6423828 L21.3911765,68.6714844 L21.3619608,70.0769531 C21.3584314,70.2474609 21.3047059,74.2833984 23.8727451,76.8414063 C26.2872549,79.2464844 30.0131373,79.3429687 30.592549,79.3429687 C30.6294118,79.3429687 30.6535294,79.3425781 30.6637255,79.3423828 L32.0747059,79.3132813 L32.1039216,77.9078125 C32.107451,77.7373047 32.1611765,73.7013672 29.5931373,71.1433594 Z M25.9529412,74.7693359 C25.0919608,73.9117187 24.6803922,72.7150391 24.4833333,71.7525391 C25.4505882,71.9492187 26.6541176,72.3595703 27.5131373,73.2152344 C28.3739216,74.0726562 28.7856863,75.2689453 28.982549,76.2318359 C28.015098,76.0353516 26.8119608,75.625 25.9529412,74.7693359 Z" id="path-2"></path>
        <path d="M59.0421569,48.5972656 L58.2201961,47.4546875 L57.04,48.2253906 C56.8968627,48.31875 53.524902,50.5570313 52.8588235,54.1132812 C52.1929412,57.6697266 54.5290196,60.9679687 54.6284314,61.1066406 L55.4503922,62.2492187 L56.6305882,61.4785156 C56.7737255,61.3849609 60.1460784,59.1466797 60.8115686,55.5904297 C61.477451,52.0341797 59.1417647,48.7357422 59.0421569,48.5972656 Z M57.9198039,55.0533203 C57.6966667,56.2453125 56.9390196,57.2601562 56.2531373,57.9664062 C55.8690196,57.0605469 55.5282353,55.8398438 55.7507843,54.6503906 C55.9741176,53.4576172 56.7327451,52.4419922 57.4184314,51.7363281 C57.8029412,52.6414062 58.1431373,53.8607422 57.9198039,55.0533203 Z" id="path-3"></path>
        <path d="M25.6227451,87.1349609 L25.5433333,85.7314453 L24.1321569,85.7523437 C23.9745098,85.7546875 20.2462745,85.8375 17.9639216,88.2789062 C15.6809804,90.7205078 15.8631373,94.4304687 15.8719608,94.5873047 L15.9513725,95.9908203 L17.362549,95.9699219 C17.5201961,95.9675781 21.2484314,95.8847656 23.5307843,93.4433594 C25.8135294,91.0019531 25.6313725,87.2917969 25.6227451,87.1349609 Z M21.3780392,91.4462891 C20.7058824,92.1650391 19.7641176,92.5603516 18.9560784,92.7775391 C19.1160784,91.959375 19.4452941,90.9945312 20.1164706,90.2761719 C20.7888235,89.5572266 21.7309804,89.1619141 22.5384314,88.9447266 C22.3784314,89.7630859 22.0494118,90.728125 21.3780392,91.4462891 Z" id="path-4"></path>
        <path d="M89.2466667,41.6498047 L89.2176471,40.2443359 L87.8066667,40.2150391 C87.6382353,40.2115234 83.5839216,40.1578125 81.0154902,42.7160156 C78.447451,45.2742188 78.5013725,49.3101563 78.504902,49.4806641 L78.5339216,50.8861328 L79.944902,50.9152344 C79.955098,50.9154297 79.9792157,50.9158203 80.0160784,50.9158203 C80.5958824,50.9158203 84.3215686,50.8191406 86.7360784,48.4142578 C89.3041176,45.85625 89.2501961,41.8203125 89.2466667,41.6498047 Z M84.6558824,46.3419922 C83.795098,47.1994141 82.5941176,47.6097656 81.627451,47.8058594 C81.824902,46.8423828 82.2368627,45.6435547 83.0958824,44.7878906 C83.9568627,43.9302734 85.1582353,43.5203125 86.1243137,43.3240234 C85.9268627,44.2876953 85.514902,45.4865234 84.6558824,46.3419922 Z" id="path-5"></path>
        <path d="M12.6711765,32.1835938 L11.945098,30.9783203 L10.7060784,31.6509766 C10.5556863,31.7326172 7.01215686,33.6902344 6.05843137,37.18125 C5.10490196,40.6720703 7.16372549,44.1484375 7.25176471,44.2947266 L7.97784314,45.5 L9.21686275,44.8273437 C9.3672549,44.7457031 12.9107843,42.7880859 13.8645098,39.2970703 C14.8182353,35.80625 12.7592157,32.3298828 12.6711765,32.1835938 Z M11.0260784,38.5277344 C10.7064706,39.6976562 9.86862745,40.6480469 9.1272549,41.2960937 C8.81823529,40.3621094 8.57803922,39.1179688 8.8972549,37.9503906 C9.21686275,36.7802734 10.0552941,35.8298828 10.7958824,35.1818359 C11.104902,36.1158203 11.345098,37.3601562 11.0260784,38.5277344 Z" id="path-6"></path>
        <path d="M55.1901961,14.5900391 C52.6219608,12.0318359 48.5701961,12.0849609 48.3990196,12.0890625 L46.9880392,12.1181641 L46.9588235,13.5236328 C46.9552941,13.6941406 46.9015686,17.7300781 49.4696078,20.2882813 C51.8841176,22.6933594 55.6101961,22.7896484 56.1896078,22.7896484 C56.2264706,22.7896484 56.2507843,22.7892578 56.2607843,22.7890625 L57.6717647,22.7599609 L57.7007843,21.3544922 C57.7045098,21.1839844 57.7582353,17.1480469 55.1901961,14.5900391 Z M51.5498039,18.2160156 C50.6886275,17.3583984 50.2768627,16.1615234 50.08,15.1992188 C51.047451,15.3958984 52.2509804,15.80625 53.1098039,16.6619141 C53.9707843,17.5193359 54.382549,18.715625 54.5794118,19.6785156 C53.6119608,19.4820312 52.4086275,19.0714844 51.5498039,18.2160156 Z" id="path-7"></path>
        <path d="M37.1080392,24.0673828 L37.0788235,22.6619141 L35.6678431,22.6328125 C35.4966667,22.6289063 31.444902,22.5755859 28.8768627,25.1337891 C26.3086275,27.6919922 26.362549,31.7279297 26.3660784,31.8984375 L26.395098,33.3037109 L27.8060784,33.3328125 C27.8162745,33.3330078 27.8403922,33.3333984 27.8772549,33.3333984 C28.4570588,33.3333984 32.1827451,33.2367188 34.5972549,30.8318359 C37.1652941,28.2738281 37.1115686,24.2378906 37.1080392,24.0673828 Z M32.5170588,28.7599609 C31.6562745,29.6173828 30.455098,30.0275391 29.4884314,30.2238281 C29.6858824,29.2603516 30.0978431,28.0615234 30.9568627,27.2058594 C31.8178431,26.3482422 33.0192157,25.9380859 33.9854902,25.7419922 C33.7878431,26.7054688 33.3760784,27.9042969 32.5170588,28.7599609 Z" id="path-8"></path>
        <path d="M35.0070588,44.1085938 L34.9778431,42.703125 L33.5668627,42.6740234 C33.3327451,42.6681641 27.7721569,42.5951172 24.2715686,46.0820313 C20.7711765,49.56875 20.8452941,55.1070313 20.8501961,55.3410156 L20.8794118,56.7464844 L22.2903922,56.7755859 C22.3045098,56.7757812 22.3380392,56.7763672 22.3892157,56.7763672 C23.1876471,56.7763672 28.2960784,56.6443359 31.5856863,53.3675781 C35.0860784,49.8808594 35.0119608,44.3425781 35.0070588,44.1085938 Z M29.504902,51.2955078 C27.8658824,52.928125 25.47,53.5162109 23.9096078,53.7275391 C24.1219608,52.1734375 24.7123529,49.7869141 26.3513725,48.1541016 C27.1719608,47.3367187 28.1819608,46.78125 29.1819608,46.4039062 L26.8880392,48.6888672 L28.9682353,50.7607422 L31.2621569,48.4757812 C30.8833333,49.4720703 30.3254902,50.478125 29.504902,51.2955078 Z" id="path-9"></path>
        <path d="M90.8931373,7.83691406 L90.8641176,6.43144531 L89.4531373,6.40234375 C89.0798039,6.39433594 80.2303922,6.27636719 74.6966667,11.7882813 C69.1633333,17.3 69.2819608,26.1144531 69.2898039,26.4869141 L69.3186275,27.8923828 L70.7296078,27.9214844 C70.7521569,27.921875 70.8060784,27.9228516 70.8884314,27.9228516 C72.1639216,27.9228516 80.2880392,27.7130859 85.4860784,22.5355469 C91.0194118,17.0238281 90.9009804,8.20917969 90.8931373,7.83691406 Z M83.4056863,20.4634766 C80.8788235,22.9804688 77.3809804,24.0986328 74.7088235,24.5957031 L83.1082353,16.2292969 L81.0280392,14.1574219 L72.6211765,22.5314453 C73.1162745,19.8730469 74.2380392,16.3896484 76.7770588,13.8605469 C80.1815686,10.4693359 85.3501961,9.61601562 87.8843137,9.40273437 C87.6743137,11.9240234 86.8237255,17.0587891 83.4056863,20.4634766 Z" id="path-10"></path>
        <path d="M58.337451,70.7158203 C53.7831373,66.1791016 46.5164706,66.2757812 46.2105882,66.2820312 L44.7996078,66.3111328 L44.7703922,67.7166016 C44.7641176,68.0222656 44.6668627,75.2595703 49.2213725,79.7962891 C53.5007843,84.0589844 60.1729412,84.2310547 61.2184314,84.2310547 C61.2856863,84.2310547 61.3296078,84.2304688 61.3482353,84.2300781 L62.7592157,84.2009766 L62.7882353,82.7955078 C62.794902,82.4900391 62.8919608,75.2527344 58.337451,70.7158203 Z M56.4713725,80.5882812 C54.7152941,80.0806641 52.7968627,79.2138672 51.3015686,77.7246094 C48.754902,75.1876953 48.0137255,71.3878906 47.7988235,69.2953125 C49.8964706,69.5054687 53.6988235,70.2392578 56.2572549,72.7878906 C58.1752941,74.6982422 59.0686275,77.3242188 59.485098,79.3992188 L54.5911765,74.7625 L52.5637255,76.8855469 L56.4713725,80.5882812 Z" id="path-11"></path>
        <path d="M99.9101961,69.2013672 L99.8811765,67.7958984 L98.4701961,67.7667969 C97.8939216,67.75625 84.2968627,67.5732422 75.8276471,76.009375 C67.3584314,84.4455078 67.5407843,97.9910156 67.5529412,98.5634766 L67.5819608,99.9689453 L68.9929412,99.9980469 C69.0280392,99.9986328 69.1109804,100 69.2384314,100 C71.2047059,100 83.6821569,99.6777344 91.6354902,91.7552734 C100.104706,83.3191406 99.9223529,69.7736328 99.9101961,69.2013672 Z M89.555098,89.6832031 C83.5170588,95.6978516 74.1484314,96.8175781 70.5390196,97.0230469 C70.7454902,93.4279297 71.8696078,84.0960937 77.9078431,78.08125 C82.8729412,73.1353516 90.0872549,71.5003906 94.5019608,70.9609375 L86.1184314,78.9636719 L88.1539216,81.0794922 L96.7352941,72.8876953 C96.227451,77.2570312 94.6211765,84.6369141 89.555098,89.6832031 Z" id="path-12"></path>
        <path d="M19.4413725,6.53105469 C12.7331373,-0.151171875 1.9845098,-0.0078125 1.52941176,0.0015625 L0.118431373,0.030859375 L0.0892156863,1.43632812 C0.0798039216,1.88886719 -0.0643137255,12.5964844 6.64392157,19.2785156 C12.9447059,25.5546875 22.8109804,25.809375 24.362549,25.809375 C24.4629412,25.809375 24.5284314,25.8083984 24.5560784,25.8078125 L25.9670588,25.7787109 L25.9962745,24.3732422 C26.0056863,23.9208984 26.1496078,13.2132812 19.4413725,6.53105469 Z M20.8598039,22.5957031 C17.4390196,22.1091797 12.3198039,20.7880859 8.72411765,17.2066406 C5.29039216,13.7861328 3.92686275,8.95566406 3.3854902,5.55605469 L7.49,9.64453125 L9.57,7.57265625 L5.19509804,3.21445312 C8.62058824,3.70136719 13.7666667,5.02246094 17.3611765,8.60292969 C20.807451,12.0357422 22.1686275,16.8886719 22.7056863,20.2904297 L11.9603922,9.58710937 L9.88039216,11.6591797 L20.8598039,22.5957031 Z" id="path-13"></path>
        <rect id="path-14" x="81.059822" y="83.1910919" width="2.86016865" height="2.93024534"></rect>
        <rect id="path-15" x="17.9080392" y="33.3339844" width="2.94176471" height="2.93027344"></rect>
        <rect id="path-16" x="3.5654902" y="22.3451172" width="2.94176471" height="2.93027344"></rect>
        <rect id="path-17" x="43.2805882" y="32.2341797" width="2.94176471" height="2.93046875"></rect>
        <rect id="path-18" x="13.8621569" y="61.1724609" width="2.94176471" height="2.93027344"></rect>
        <rect id="path-19" x="10.5527451" y="57.5095703" width="2.94176471" height="2.93027344"></rect>
        <rect id="path-20" x="32.617451" y="86.4458984" width="2.94176471" height="2.93027344"></rect>
        <rect id="path-21" x="36.6615686" y="69.2310547" width="2.94176471" height="2.93027344"></rect>
        <rect id="path-22" x="63.1382353" y="44.6882813" width="2.94176471" height="2.93027344"></rect>
        <rect id="path-23" x="58.7254902" y="8.42578125" width="2.94176471" height="2.93027344"></rect>
        <rect id="path-24" x="39.9721569" y="16.1171875" width="2.94176471" height="2.93027344"></rect>
        <rect id="path-25" x="91.8213725" y="22.3451172" width="2.94176471" height="2.93027344"></rect>
        <rect id="path-26" x="88.1441176" y="26.3734375" width="2.94176471" height="2.93027344"></rect>
        <rect id="path-27" x="93.2923529" y="50.9162109" width="2.94196078" height="2.93027344"></rect>
    </defs>
    <g id="Page-1" stroke="none" stroke-width="1" fill="none" fill-rule="evenodd">
        <g id="Atomic" transform="translate(-829.000000, -903.000000)">
            <g id="ic_seeds" transform="translate(829.000000, 903.000000)">
                <rect id="Rectangle-16" fill="#CCE0EF" x="0" y="0" width="140" height="140"></rect>
                <g id="seeds-copy" transform="translate(20.000000, 20.000000)" fill-rule="nonzero">
                    <g id="Rectangle-path">
                        <use fill="#0066B3" fill-rule="evenodd" xlink:href="#path-1"></use>
                        <use fill="#505050" fill-rule="evenodd" xlink:href="#path-1"></use>
                    </g>
                    <g id="Shape">
                        <use fill="#0066B3" fill-rule="evenodd" xlink:href="#path-2"></use>
                        <use fill="#505050" fill-rule="evenodd" xlink:href="#path-2"></use>
                    </g>
                    <g id="Shape">
                        <use fill="#0066B3" fill-rule="evenodd" xlink:href="#path-3"></use>
                        <use fill="#505050" fill-rule="evenodd" xlink:href="#path-3"></use>
                    </g>
                    <g id="Shape">
                        <use fill="#0066B3" fill-rule="evenodd" xlink:href="#path-4"></use>
                        <use fill="#505050" fill-rule="evenodd" xlink:href="#path-4"></use>
                    </g>
                    <g id="Shape">
                        <use fill="#0066B3" fill-rule="evenodd" xlink:href="#path-5"></use>
                        <use fill="#505050" fill-rule="evenodd" xlink:href="#path-5"></use>
                    </g>
                    <g id="Shape">
                        <use fill="#0066B3" fill-rule="evenodd" xlink:href="#path-6"></use>
                        <use fill="#505050" fill-rule="evenodd" xlink:href="#path-6"></use>
                    </g>
                    <g id="Shape">
                        <use fill="#0066B3" fill-rule="evenodd" xlink:href="#path-7"></use>
                        <use fill="#505050" fill-rule="evenodd" xlink:href="#path-7"></use>
                    </g>
                    <g id="Shape">
                        <use fill="#0066B3" fill-rule="evenodd" xlink:href="#path-8"></use>
                        <use fill="#505050" fill-rule="evenodd" xlink:href="#path-8"></use>
                    </g>
                    <g id="Shape">
                        <use fill="#0066B3" fill-rule="evenodd" xlink:href="#path-9"></use>
                        <use fill="#505050" fill-rule="evenodd" xlink:href="#path-9"></use>
                    </g>
                    <g id="Shape">
                        <use fill="#0066B3" fill-rule="evenodd" xlink:href="#path-10"></use>
                        <use fill="#505050" fill-rule="evenodd" xlink:href="#path-10"></use>
                    </g>
                    <g id="Shape">
                        <use fill="#0066B3" fill-rule="evenodd" xlink:href="#path-11"></use>
                        <use fill="#505050" fill-rule="evenodd" xlink:href="#path-11"></use>
                    </g>
                    <g id="Shape">
                        <use fill="#0066B3" fill-rule="evenodd" xlink:href="#path-12"></use>
                        <use fill="#505050" fill-rule="evenodd" xlink:href="#path-12"></use>
                    </g>
                    <g id="Shape">
                        <use fill="#0066B3" fill-rule="evenodd" xlink:href="#path-13"></use>
                        <use fill="#505050" fill-rule="evenodd" xlink:href="#path-13"></use>
                    </g>
                    <g id="Rectangle-path" transform="translate(82.489906, 84.656215) rotate(-45.000000) translate(-82.489906, -84.656215) ">
                        <use fill="#0066B3" fill-rule="evenodd" xlink:href="#path-14"></use>
                        <use fill="#505050" fill-rule="evenodd" xlink:href="#path-14"></use>
                    </g>
                    <g id="Rectangle-path">
                        <use fill="#0066B3" fill-rule="evenodd" xlink:href="#path-15"></use>
                        <use fill="#505050" fill-rule="evenodd" xlink:href="#path-15"></use>
                    </g>
                    <g id="Rectangle-path">
                        <use fill="#0066B3" fill-rule="evenodd" xlink:href="#path-16"></use>
                        <use fill="#505050" fill-rule="evenodd" xlink:href="#path-16"></use>
                    </g>
                    <g id="Rectangle-path">
                        <use fill="#0066B3" fill-rule="evenodd" xlink:href="#path-17"></use>
                        <use fill="#505050" fill-rule="evenodd" xlink:href="#path-17"></use>
                    </g>
                    <g id="Rectangle-path">
                        <use fill="#0066B3" fill-rule="evenodd" xlink:href="#path-18"></use>
                        <use fill="#505050" fill-rule="evenodd" xlink:href="#path-18"></use>
                    </g>
                    <g id="Rectangle-path">
                        <use fill="#0066B3" fill-rule="evenodd" xlink:href="#path-19"></use>
                        <use fill="#505050" fill-rule="evenodd" xlink:href="#path-19"></use>
                    </g>
                    <g id="Rectangle-path">
                        <use fill="#0066B3" fill-rule="evenodd" xlink:href="#path-20"></use>
                        <use fill="#505050" fill-rule="evenodd" xlink:href="#path-20"></use>
                    </g>
                    <g id="Rectangle-path">
                        <use fill="#0066B3" fill-rule="evenodd" xlink:href="#path-21"></use>
                        <use fill="#505050" fill-rule="evenodd" xlink:href="#path-21"></use>
                    </g>
                    <g id="Rectangle-path">
                        <use fill="#0066B3" fill-rule="evenodd" xlink:href="#path-22"></use>
                        <use fill="#505050" fill-rule="evenodd" xlink:href="#path-22"></use>
                    </g>
                    <g id="Rectangle-path">
                        <use fill="#0066B3" fill-rule="evenodd" xlink:href="#path-23"></use>
                        <use fill="#505050" fill-rule="evenodd" xlink:href="#path-23"></use>
                    </g>
                    <g id="Rectangle-path">
                        <use fill="#0066B3" fill-rule="evenodd" xlink:href="#path-24"></use>
                        <use fill="#505050" fill-rule="evenodd" xlink:href="#path-24"></use>
                    </g>
                    <g id="Rectangle-path">
                        <use fill="#0066B3" fill-rule="evenodd" xlink:href="#path-25"></use>
                        <use fill="#505050" fill-rule="evenodd" xlink:href="#path-25"></use>
                    </g>
                    <g id="Rectangle-path">
                        <use fill="#0066B3" fill-rule="evenodd" xlink:href="#path-26"></use>
                        <use fill="#505050" fill-rule="evenodd" xlink:href="#path-26"></use>
                    </g>
                    <g id="Rectangle-path">
                        <use fill="#0066B3" fill-rule="evenodd" xlink:href="#path-27"></use>
                        <use fill="#505050" fill-rule="evenodd" xlink:href="#path-27"></use>
                    </g>
                </g>
            </g>
        </g>
    </g>
</svg>